<?xml version="1.0" encoding="utf-8"?>
<svg width="129px" height="241px" viewbox="0 0 129 241" version="1.1" xmlns:xlink="http://www.w3.org/1999/xlink" xmlns="http://www.w3.org/2000/svg">
  <defs>
    <linearGradient x1="0.5" y1="0" x2="0.5" y2="1" id="gradient_1">
      <stop offset="0" stop-color="#454545" />
      <stop offset="0.22627911" stop-color="#999999" />
      <stop offset="1" stop-color="#FFFFFF" />
    </linearGradient>
    <linearGradient x1="1" y1="0.5" x2="0.3070163" y2="0.5" id="gradient_2">
      <stop offset="0" stop-color="#FFFFFF" stop-opacity="0" />
      <stop offset="0.22217794" stop-color="#BABABA" />
      <stop offset="0.54678047" stop-color="#FFFFFF" stop-opacity="0" />
      <stop offset="1" stop-color="#FFFFFF" stop-opacity="0" />
    </linearGradient>
    <linearGradient x1="1" y1="0.5" x2="0.3059087" y2="0.5" id="gradient_3">
      <stop offset="0" stop-color="#FFFFFF" stop-opacity="0" />
      <stop offset="0.22217794" stop-color="#BABABA" />
      <stop offset="0.54678047" stop-color="#FFFFFF" stop-opacity="0" />
      <stop offset="1" stop-color="#FFFFFF" stop-opacity="0" />
    </linearGradient>
    <linearGradient x1="0.5" y1="0" x2="0.5" y2="0.9922148" id="gradient_4">
      <stop offset="0" stop-color="#9CB6CD" />
      <stop offset="0.42056382" stop-color="#9AB3CA" />
      <stop offset="0.716592" stop-color="#557496" />
      <stop offset="1" stop-color="#475178" />
    </linearGradient>
    <filter filterUnits="userSpaceOnUse" color-interpolation-filters="sRGB" id="filter_1">
      <feFlood flood-opacity="0" result="BackgroundImageFix" />
      <feColorMatrix in="SourceAlpha" type="matrix" values="0 0 0 0 0 0 0 0 0 0 0 0 0 0 0 0 0 0 127 0" />
      <feOffset dx="25" dy="25" />
      <feGaussianBlur stdDeviation="40" />
      <feColorMatrix type="matrix" values="0 0 0 0 0.21176471 0 0 0 0 0.3254902 0 0 0 0 0.41960785 0 0 0 0.3019608 0" />
      <feBlend mode="normal" in2="BackgroundImageFix" result="effect0_dropShadow" />
      <feBlend mode="normal" in="SourceGraphic" in2="effect0_dropShadow" result="shape" />
    </filter>
    <filter filterUnits="userSpaceOnUse" color-interpolation-filters="sRGB" id="filter_2">
      <feFlood flood-opacity="0" result="BackgroundImageFix" />
      <feColorMatrix in="SourceAlpha" type="matrix" values="0 0 0 0 0 0 0 0 0 0 0 0 0 0 0 0 0 0 127 0" />
      <feMorphology radius="-10" operator="dilate" in="SourceAlpha" result="effect0_dropShadow" />
      <feOffset dx="10" dy="10" />
      <feGaussianBlur stdDeviation="12.5" />
      <feColorMatrix type="matrix" values="0 0 0 0 0.21176471 0 0 0 0 0.3254902 0 0 0 0 0.41960785 0 0 0 0.2509804 0" />
      <feBlend mode="normal" in2="BackgroundImageFix" result="effect0_dropShadow" />
      <feBlend mode="normal" in="SourceGraphic" in2="effect0_dropShadow" result="shape" />
    </filter>
    <path d="M45.2706 0L9.28395 7.26545e-14C3.91327 7.26545e-14 0 3.63038 0 8.37188L0 211.119C0 217.301 6.04672 222.779 12.884 222.779L99.6185 222.779C106.205 222.779 112.503 217.259 112.503 211.119L112.503 8.91992C112.503 3.2369 108.251 0.0337957 103.219 7.26545e-14L66.6614 9.89338e-14C66.5229 0.0225305 64.0117 1.04724 62.9503 3.63038C61.889 6.21352 59.7534 8.27273 57.4152 8.27273L54.6995 8.27273C53.5881 8.27273 50.6621 7.20247 49.1805 3.63038C47.6988 0.0582881 45.4091 0.0225305 45.2706 0Z" id="path_1" />
    <clipPath id="mask_1">
      <use xlink:href="#path_1" />
    </clipPath>
  </defs>
  <g id="Group-30" transform="translate(0.5 0.5)">
    <g id="Group-2">
      <g id="iPhone-X-Mockup">
        <g id="phone">
          <path d="M16.0611 0L108.551 0C117.421 -1.27741e-14 124.612 6.83297 124.612 15.2619L124.612 224.191C124.612 232.62 117.421 239.453 108.551 239.453L16.0611 239.453C7.19081 239.453 9.83803e-16 232.62 0 224.191L0 15.2619C-1.10678e-15 6.83297 7.19081 1.54836e-15 16.0611 0Z" transform="translate(1.2419821 0.2733485)" id="body" fill="#213648" fill-rule="evenodd" stroke="none" filter="url(#filter_1)" />
          <g id="frame" transform="translate(1.2419821 0)">
            <path d="M105.307 0L12.0467 0C7.69264 0.263499 3.67707 2.23533 0 5.91549C2.36477 3.86683 6.58259 1.12539 12.159 1.12539C12.159 1.12539 101.477 1.12539 105.195 1.12539C110.771 1.12539 114.989 3.86683 117.354 5.91549C113.677 2.23533 109.661 0.263499 105.307 0Z" transform="translate(3.6016502 0)" id="reflect-frame-top" fill="url(#gradient_1)" fill-opacity="0.38711503" fill-rule="evenodd" stroke="none" />
            <path d="M4.13448 215.603L4.13448 10.3124C4.13448 4.80424 2.09472 2.76804 0.877893 1.46055C-0.338933 0.153064 -0.390724 -0.513814 1.35764 0.47337C3.10601 1.46055 6.60303 4.33578 6.60303 10.3124L6.60303 215.603C6.60303 221.58 3.10601 224.455 1.35764 225.442C-0.390724 226.429 -0.338933 225.762 0.877893 224.455C2.09472 223.147 4.13448 221.111 4.13448 215.603Z" transform="translate(117.95405 6.4788733)" id="reflect-frame-right" fill="url(#gradient_2)" fill-opacity="0.75" fill-rule="evenodd" stroke="none" />
            <path d="M4.13448 215.603L4.13448 10.3124C4.13448 4.80424 2.09472 2.76804 0.877893 1.46055C-0.338933 0.153064 -0.390724 -0.513814 1.35764 0.47337C3.10601 1.46055 6.60303 4.33578 6.60303 10.3124L6.60303 215.603C6.60303 221.58 3.10601 224.455 1.35764 225.442C-0.390724 226.429 -0.338933 225.762 0.877893 224.455C2.09472 223.147 4.13448 221.111 4.13448 215.603Z" transform="matrix(-1 0 0 1 6.6030254 6.4788733)" id="reflect-frame-left" fill="url(#gradient_3)" fill-opacity="0.75" fill-rule="evenodd" stroke="none" />
          </g>
          <g id="controls" transform="translate(0 48.656036)">
            <path d="M1.19955 0L1.20155 0Q1.26048 0 1.31913 0.00577616Q1.37777 0.0115523 1.43557 0.023049Q1.49337 0.0345457 1.54976 0.0516522Q1.60615 0.0687587 1.6606 0.0913103Q1.71504 0.113862 1.76701 0.141641Q1.81899 0.169421 1.86798 0.202161Q1.91698 0.2349 1.96254 0.272285Q2.00809 0.30967 2.04976 0.35134Q2.09143 0.39301 2.12881 0.438564Q2.1662 0.484117 2.19894 0.533116Q2.23168 0.582114 2.25946 0.634086Q2.28724 0.686058 2.30979 0.740502Q2.33234 0.794946 2.34945 0.851339Q2.36655 0.907732 2.37805 0.965529Q2.38955 1.02333 2.39532 1.08197Q2.4011 1.14062 2.4011 1.19955L2.4011 29.6888Q2.4011 29.7478 2.39532 29.8064Q2.38955 29.8651 2.37805 29.9228Q2.36655 29.9806 2.34945 30.037Q2.33234 30.0934 2.30979 30.1479Q2.28724 30.2023 2.25946 30.2543Q2.23168 30.3063 2.19894 30.3553Q2.1662 30.4043 2.12881 30.4498Q2.09143 30.4954 2.04976 30.537Q2.00809 30.5787 1.96254 30.6161Q1.91698 30.6535 1.86798 30.6862Q1.81899 30.719 1.76701 30.7467Q1.71504 30.7745 1.6606 30.7971Q1.60615 30.8196 1.54976 30.8367Q1.49337 30.8538 1.43557 30.8653Q1.37777 30.8768 1.31913 30.8826Q1.26048 30.8884 1.20155 30.8884L1.19955 30.8884Q1.14062 30.8884 1.08197 30.8826Q1.02333 30.8768 0.965529 30.8653Q0.907732 30.8538 0.851339 30.8367Q0.794946 30.8196 0.740502 30.7971Q0.686058 30.7745 0.634086 30.7467Q0.582114 30.719 0.533116 30.6862Q0.484117 30.6535 0.438564 30.6161Q0.39301 30.5787 0.35134 30.537Q0.30967 30.4954 0.272285 30.4498Q0.2349 30.4043 0.202161 30.3553Q0.169421 30.3063 0.141641 30.2543Q0.113862 30.2023 0.0913103 30.1479Q0.0687587 30.0934 0.0516522 30.037Q0.0345457 29.9806 0.023049 29.9228Q0.0115523 29.8651 0.00577616 29.8064Q0 29.7478 0 29.6888L0 1.19955Q0 1.14062 0.00577616 1.08197Q0.0115523 1.02333 0.023049 0.965529Q0.0345457 0.907732 0.0516522 0.851339Q0.0687587 0.794946 0.0913103 0.740502Q0.113862 0.686058 0.141641 0.634086Q0.169421 0.582114 0.202161 0.533116Q0.2349 0.484117 0.272285 0.438564Q0.30967 0.39301 0.35134 0.35134Q0.39301 0.30967 0.438564 0.272285Q0.484117 0.2349 0.533116 0.202161Q0.582114 0.169421 0.634086 0.141641Q0.686058 0.113862 0.740502 0.0913103Q0.794946 0.0687587 0.851339 0.0516522Q0.907732 0.0345457 0.965529 0.023049Q1.02333 0.0115523 1.08197 0.00577616Q1.14062 0 1.19955 0Z" transform="translate(0 0.091081485)" id="vol+" fill="#2E423C" fill-rule="evenodd" stroke="none" />
            <path d="M1.19955 0L1.20155 0Q1.26048 0 1.31913 0.00577616Q1.37777 0.0115523 1.43557 0.023049Q1.49337 0.0345457 1.54976 0.0516522Q1.60615 0.0687587 1.6606 0.0913103Q1.71504 0.113862 1.76701 0.141641Q1.81899 0.169421 1.86798 0.202161Q1.91698 0.2349 1.96254 0.272285Q2.00809 0.30967 2.04976 0.35134Q2.09143 0.39301 2.12881 0.438564Q2.1662 0.484117 2.19894 0.533116Q2.23168 0.582114 2.25946 0.634086Q2.28724 0.686058 2.30979 0.740502Q2.33234 0.794946 2.34945 0.851339Q2.36655 0.907732 2.37805 0.965529Q2.38955 1.02333 2.39532 1.08197Q2.4011 1.14062 2.4011 1.19955L2.4011 21.3365Q2.4011 21.3954 2.39532 21.454Q2.38955 21.5127 2.37805 21.5705Q2.36655 21.6283 2.34945 21.6847Q2.33234 21.7411 2.30979 21.7955Q2.28724 21.85 2.25946 21.9019Q2.23168 21.9539 2.19894 22.0029Q2.1662 22.0519 2.12881 22.0975Q2.09143 22.143 2.04976 22.1847Q2.00809 22.2263 1.96254 22.2637Q1.91698 22.3011 1.86798 22.3339Q1.81899 22.3666 1.76701 22.3944Q1.71504 22.4222 1.6606 22.4447Q1.60615 22.4673 1.54976 22.4844Q1.49337 22.5015 1.43557 22.513Q1.37777 22.5245 1.31913 22.5302Q1.26048 22.536 1.20155 22.536L1.19955 22.536Q1.14062 22.536 1.08197 22.5302Q1.02333 22.5245 0.965529 22.513Q0.907732 22.5015 0.851339 22.4844Q0.794946 22.4673 0.740502 22.4447Q0.686058 22.4222 0.634086 22.3944Q0.582114 22.3666 0.533116 22.3339Q0.484117 22.3011 0.438564 22.2637Q0.39301 22.2263 0.35134 22.1847Q0.30967 22.143 0.272285 22.0975Q0.2349 22.0519 0.202161 22.0029Q0.169421 21.9539 0.141641 21.9019Q0.113862 21.85 0.0913103 21.7955Q0.0687587 21.7411 0.0516522 21.6847Q0.0345457 21.6283 0.023049 21.5705Q0.0115523 21.5127 0.00577616 21.454Q0 21.3954 0 21.3365L0 1.19955Q0 1.14062 0.00577616 1.08197Q0.0115523 1.02333 0.023049 0.965529Q0.0345457 0.907732 0.0516522 0.851339Q0.0687587 0.794946 0.0913103 0.740502Q0.113862 0.686058 0.141641 0.634086Q0.169421 0.582114 0.202161 0.533116Q0.2349 0.484117 0.272285 0.438564Q0.30967 0.39301 0.35134 0.35134Q0.39301 0.30967 0.438564 0.272285Q0.484117 0.2349 0.533116 0.202161Q0.582114 0.169421 0.634086 0.141641Q0.686058 0.113862 0.740502 0.0913103Q0.794946 0.0687587 0.851339 0.0516522Q0.907732 0.0345457 0.965529 0.023049Q1.02333 0.0115523 1.08197 0.00577616Q1.14062 0 1.19955 0Z" transform="translate(124.557076 25.284739)" id="power" fill="#2E423C" fill-rule="evenodd" stroke="none" />
          </g>
        </g>
        <g id="Screen" transform="translate(7.2906675 5.9733505)">
          <path d="M45.2706 0L9.28395 7.26545e-14C3.91327 7.26545e-14 0 3.63038 0 8.37188L0 211.119C0 217.301 6.04672 222.779 12.884 222.779L99.6185 222.779C106.205 222.779 112.503 217.259 112.503 211.119L112.503 8.91992C112.503 3.2369 108.251 0.0337957 103.219 7.26545e-14L66.6614 9.89338e-14C66.5229 0.0225305 64.0117 1.04724 62.9503 3.63038C61.889 6.21352 59.7534 8.27273 57.4152 8.27273L54.6995 8.27273C53.5881 8.27273 50.6621 7.20247 49.1805 3.63038C47.6988 0.0582881 45.4091 0.0225305 45.2706 0Z" id="Screen-Mask" fill="#FFFFFF" fill-rule="evenodd" stroke="none" />
          <g clip-path="url(#mask_1)">
            <path d="M0 0L113 0L113 223L0 223L0 0Z" transform="translate(-0.29066747 0.026649464)" id="Rectangle" fill="url(#gradient_4)" fill-rule="evenodd" stroke="none" />
            <path d="M4.28708 11.2589L4.28708 0.1536L2.78583 0.1536C2.74971 0.47104 2.63364 0.74368 2.4376 0.97152C2.24156 1.19936 1.94621 1.37344 1.55155 1.49376C1.15689 1.61408 0.639708 1.67424 0 1.67424L0 1.67424L0 2.94144L1.99651 2.94144L1.99651 11.2589L4.28708 11.2589ZM15.0512 11.2589L15.0512 9.3696L9.34799 9.3696L9.34799 9.26976C9.34799 8.93184 9.45117 8.64256 9.65753 8.40192C9.86388 8.16128 10.1373 7.94496 10.4778 7.75296C10.8183 7.56096 11.191 7.3728 11.596 7.18848C12.001 7.00416 12.4072 6.80448 12.8148 6.58944C13.2224 6.3744 13.5964 6.12352 13.9369 5.8368C14.2774 5.55008 14.5508 5.20448 14.7571 4.8C14.9635 4.39552 15.0667 3.91424 15.0667 3.35616C15.0667 2.68544 14.9016 2.0992 14.5714 1.59744C14.2412 1.09568 13.7731 0.704 13.1669 0.4224C12.5607 0.1408 11.8398 0 11.004 0C10.029 0 9.21902 0.16896 8.57415 0.50688C7.92928 0.8448 7.44563 1.30176 7.1232 1.87776C6.80077 2.45376 6.63439 3.09504 6.62407 3.8016L6.62407 3.8016L8.78309 3.8016C8.87595 3.15136 9.11842 2.66496 9.5105 2.3424C9.90258 2.01984 10.3798 1.85856 10.9421 1.85856C11.4838 1.85856 11.9107 1.99936 12.2228 2.28096C12.5349 2.56256 12.691 2.92608 12.691 3.37152C12.691 3.71968 12.5852 4.02176 12.3737 4.27776C12.1622 4.53376 11.8823 4.76544 11.5341 4.9728C11.1859 5.18016 10.8028 5.38624 10.3849 5.59104C9.96706 5.79584 9.55048 6.01344 9.13519 6.24384C8.71989 6.47424 8.33813 6.74176 7.9899 7.0464C7.64167 7.35104 7.3618 7.70944 7.15028 8.1216C6.93877 8.53376 6.83301 9.02144 6.83301 9.58464L6.83301 9.58464L6.83301 11.2589L15.0512 11.2589ZM19.0287 5.9136L19.0287 3.50976L16.5524 3.50976L16.5524 5.9136L19.0287 5.9136ZM19.0287 11.2128L19.0287 8.81664L16.5524 8.81664L16.5524 11.2128L19.0287 11.2128ZM27.9434 11.2589L27.9434 8.80128L29.669 8.80128L29.669 6.91968L27.9434 6.91968L27.9434 0.1536L25.7225 0.1536L20.6228 6.95808L20.6228 8.80128L25.7766 8.80128L25.7689 11.2589L27.9434 11.2589ZM25.7766 6.91968L22.7122 6.91968L25.7766 2.84928L25.7766 6.91968ZM34.9002 11.4278C35.8804 11.4278 36.7239 11.209 37.4307 10.7712C38.1374 10.3334 38.6804 9.67296 39.0596 8.78976C39.4388 7.90656 39.6284 6.80192 39.6284 5.47584C39.6284 4.3648 39.4439 3.3984 39.0751 2.57664C38.7062 1.75488 38.1774 1.12 37.4887 0.672C36.8 0.224 35.981 0 35.0317 0C34.1857 0 33.448 0.16128 32.8186 0.48384C32.1892 0.8064 31.6991 1.25184 31.3483 1.82016C30.9975 2.38848 30.8221 3.03616 30.8221 3.7632C30.8221 4.48512 30.9884 5.10848 31.3212 5.63328C31.6539 6.15808 32.1131 6.56256 32.6986 6.84672C33.2842 7.13088 33.9561 7.27296 34.7145 7.27296C35.1324 7.27296 35.5115 7.21792 35.852 7.10784C36.1925 6.99776 36.4904 6.8416 36.7458 6.63936C37.0012 6.43712 37.2011 6.20032 37.3455 5.92896C37.4074 6.81472 37.3365 7.53152 37.1327 8.07936C36.929 8.6272 36.6246 9.02656 36.2196 9.27744C35.8146 9.52832 35.3439 9.65376 34.8073 9.65376C34.3224 9.65376 33.92 9.51936 33.6001 9.25056C33.2803 8.98176 33.0739 8.63232 32.9811 8.20224L32.9811 8.20224L30.8298 8.20224C30.8762 8.85248 31.0903 9.41952 31.4721 9.90336C31.8538 10.3872 32.3465 10.7622 32.9501 11.0285C33.5537 11.2947 34.2037 11.4278 34.9002 11.4278ZM35.1014 5.4912C34.5494 5.4912 34.1031 5.3312 33.7627 5.0112C33.4222 4.6912 33.2519 4.24192 33.2519 3.66336C33.2519 3.27424 33.3319 2.9312 33.4918 2.63424C33.6517 2.33728 33.871 2.10688 34.1496 1.94304C34.4282 1.7792 34.7454 1.69728 35.1014 1.69728C35.4883 1.69728 35.8275 1.792 36.119 1.98144C36.4105 2.17088 36.6375 2.44352 36.8 2.79936C36.9625 3.1552 37.0412 3.58144 37.036 4.07808C37.036 4.30848 36.9406 4.5312 36.7497 4.74624C36.5588 4.96128 36.315 5.1392 36.0184 5.28C35.7218 5.4208 35.4161 5.4912 35.1014 5.4912Z" transform="translate(36.4197 49.96777)" id="1249" fill="#FFFFFF" stroke="none" />
          </g>
        </g>
      </g>
    </g>
    <g id="Group-29" transform="translate(10.244295 80)">
      <path d="M1.999 0L103.005 0Q103.103 0 103.201 0.00962573Q103.299 0.0192515 103.395 0.0384102Q103.491 0.057569 103.585 0.0860763Q103.679 0.114584 103.77 0.152165Q103.861 0.189746 103.947 0.236039Q104.034 0.282333 104.116 0.336892Q104.197 0.391452 104.273 0.453752Q104.349 0.516052 104.419 0.585494Q104.488 0.654935 104.55 0.730848Q104.613 0.806761 104.667 0.888415Q104.722 0.970069 104.768 1.05668Q104.814 1.14329 104.852 1.23402Q104.889 1.32474 104.918 1.41872Q104.946 1.5127 104.966 1.60901Q104.985 1.70533 104.994 1.80306Q105.004 1.9008 105.004 1.999L105.004 40.5542Q105.004 40.6524 104.994 40.7501Q104.985 40.8479 104.966 40.9442Q104.946 41.0405 104.918 41.1345Q104.889 41.2284 104.852 41.3192Q104.814 41.4099 104.768 41.4965Q104.722 41.5831 104.667 41.6648Q104.613 41.7464 104.55 41.8223Q104.488 41.8983 104.419 41.9677Q104.349 42.0371 104.273 42.0994Q104.197 42.1617 104.116 42.2163Q104.034 42.2709 103.947 42.3172Q103.861 42.3634 103.77 42.401Q103.679 42.4386 103.585 42.4671Q103.491 42.4956 103.395 42.5148Q103.299 42.5339 103.201 42.5436Q103.103 42.5532 103.005 42.5532L1.999 42.5532Q1.9008 42.5532 1.80306 42.5436Q1.70533 42.5339 1.60901 42.5148Q1.5127 42.4956 1.41872 42.4671Q1.32474 42.4386 1.23402 42.401Q1.14329 42.3634 1.05668 42.3172Q0.970069 42.2709 0.888415 42.2163Q0.806761 42.1617 0.730848 42.0994Q0.654935 42.0371 0.585494 41.9677Q0.516052 41.8983 0.453752 41.8223Q0.391452 41.7464 0.336892 41.6648Q0.282333 41.5831 0.236039 41.4965Q0.189746 41.4099 0.152165 41.3192Q0.114584 41.2284 0.0860763 41.1345Q0.057569 41.0405 0.0384102 40.9442Q0.0192515 40.8479 0.00962573 40.7501Q0 40.6524 0 40.5542L0 1.999Q0 1.9008 0.00962573 1.80306Q0.0192515 1.70533 0.0384102 1.60901Q0.057569 1.5127 0.0860763 1.41872Q0.114584 1.32474 0.152165 1.23402Q0.189746 1.14329 0.236039 1.05668Q0.282333 0.970069 0.336892 0.888415Q0.391452 0.806761 0.453752 0.730848Q0.516052 0.654935 0.585494 0.585494Q0.654935 0.516052 0.730848 0.453752Q0.806761 0.391452 0.888415 0.336892Q0.970069 0.282333 1.05668 0.236039Q1.14329 0.189746 1.23402 0.152165Q1.32474 0.114584 1.41872 0.0860763Q1.5127 0.057569 1.60901 0.0384102Q1.70533 0.0192515 1.80306 0.00962573Q1.9008 0 1.999 0Z" transform="matrix(1 0 0 1 -2.2737368E-13 0)" id="Rectangle" fill="#FBFCFE" fill-rule="evenodd" stroke="none" filter="url(#filter_2)" />
      <g id="The-payment-has-been" transform="translate(7.755705 15.5)">
        <g id="The-payment-has-been-processed.-" fill="#36536B">
          <path d="M3.35 5.3075L3.35 1.5925L3.8 1.5925L3.8 3.1025Q3.865 2.995 3.975 2.90125Q4.085 2.8075 4.2425 2.74875Q4.4 2.69 4.6075 2.69Q4.86 2.69 5.065 2.78375Q5.27 2.8775 5.39 3.05Q5.51 3.2225 5.51 3.46L5.51 5.3075L5.0475 5.3075L5.0475 3.5525Q5.0475 3.32 4.88875 3.19375Q4.73 3.0675 4.475 3.0675Q4.3025 3.0675 4.15 3.12375Q3.9975 3.18 3.90375 3.29375Q3.81 3.4075 3.81 3.5825L3.81 5.3075L3.35 5.3075ZM31.85 1.5925L31.85 5.3075L32.31 5.3075L32.31 3.5825Q32.31 3.4075 32.4038 3.29375Q32.4975 3.18 32.65 3.12375Q32.8025 3.0675 32.975 3.0675Q33.23 3.0675 33.3888 3.19375Q33.5475 3.32 33.5475 3.5525L33.5475 5.3075L34.01 5.3075L34.01 3.46Q34.01 3.2225 33.89 3.05Q33.77 2.8775 33.565 2.78375Q33.36 2.69 33.1075 2.69Q32.9 2.69 32.7425 2.74875Q32.585 2.8075 32.475 2.90125Q32.365 2.995 32.3 3.1025L32.3 1.5925L31.85 1.5925ZM42.5425 5.3575Q42.315 5.3575 42.1587 5.2975Q42.0025 5.2375 41.9025 5.14375Q41.8025 5.05 41.7475 4.95125Q41.6925 4.8525 41.6675 4.7775L41.6175 5.3075L41.265 5.3075L41.265 1.5925L41.73 1.5925L41.73 3.1325Q41.7625 3.0675 41.8288 2.99Q41.895 2.9125 42 2.84Q42.105 2.7675 42.2487 2.72Q42.3925 2.6725 42.5775 2.6725Q43.0625 2.6725 43.3488 3.01Q43.635 3.3475 43.635 4.005Q43.635 4.4125 43.5125 4.71625Q43.39 5.02 43.1475 5.18875Q42.905 5.3575 42.5425 5.3575ZM76 5.3575Q75.4975 5.3575 75.2025 5.0125Q74.9075 4.6675 74.9075 4.005Q74.9075 3.6025 75.0263 3.3025Q75.145 3.0025 75.38 2.8375Q75.615 2.6725 75.965 2.6725Q76.15 2.6725 76.2938 2.72Q76.4375 2.7675 76.5425 2.84Q76.6475 2.9125 76.7138 2.99Q76.78 3.0675 76.8125 3.1325L76.8125 1.5925L77.2775 1.5925L77.2775 5.3075L76.925 5.3075L76.875 4.7775Q76.85 4.8525 76.795 4.95125Q76.74 5.05 76.64 5.14375Q76.54 5.2375 76.3838 5.2975Q76.2275 5.3575 76 5.3575ZM0.115 2.1175L0.115 1.6925L2.85 1.6925L2.85 2.1175L1.7475 2.1175L1.7475 5.3075L1.2825 5.3075L1.2825 2.1175L0.115 2.1175ZM30.0325 3.06L29.45 3.06L29.45 4.6675Q29.45 4.805 29.4788 4.86875Q29.5075 4.9325 29.5763 4.95Q29.645 4.9675 29.765 4.9675L30.0475 4.9675L30.0475 5.2775Q30 5.295 29.9038 5.3075Q29.8075 5.32 29.665 5.32Q29.3975 5.32 29.25 5.2475Q29.1025 5.175 29.0438 5.0325Q28.985 4.89 28.985 4.6825L28.985 3.06L28.565 3.06L28.565 2.7225L28.9975 2.7225L29.11 1.97L29.45 1.97L29.45 2.72L30.0325 2.72L30.0325 3.06ZM6.64375 4.56625Q6.5625 4.3675 6.5625 4.1225L8.415 4.1225L8.415 3.9525Q8.415 3.56 8.28375 3.27375Q8.1525 2.9875 7.9 2.83Q7.6475 2.6725 7.2825 2.6725Q6.9075 2.6725 6.64125 2.845Q6.375 3.0175 6.235 3.325Q6.095 3.6325 6.095 4.04Q6.095 4.4525 6.25 4.7475Q6.405 5.0425 6.68 5.2Q6.955 5.3575 7.3175 5.3575Q7.5675 5.3575 7.7975 5.26625Q8.0275 5.175 8.19 4.995Q8.3525 4.815 8.4 4.5525L7.9625 4.5525Q7.9125 4.77 7.73375 4.885Q7.555 5 7.3075 5Q7.0575 5 6.89125 4.8825Q6.725 4.765 6.64375 4.56625ZM10.2 6.1125L10.2 2.7225L10.66 2.7225L10.665 3.1725Q10.71 3.0925 10.7813 3.005Q10.8525 2.9175 10.9563 2.8425Q11.06 2.7675 11.1988 2.72Q11.3375 2.6725 11.515 2.6725Q11.825 2.6725 12.0613 2.81375Q12.2975 2.955 12.43 3.245Q12.5625 3.535 12.5625 3.98Q12.5625 4.425 12.4338 4.73125Q12.305 5.0375 12.0625 5.1975Q11.82 5.3575 11.4775 5.3575Q11.305 5.3575 11.1713 5.30875Q11.0375 5.26 10.9388 5.18125Q10.84 5.1025 10.7738 5.0125Q10.7075 4.9225 10.665 4.84L10.665 6.1125L10.2 6.1125ZM13.4425 5.26875Q13.635 5.3575 13.885 5.3575Q14.1625 5.3575 14.3938 5.24125Q14.625 5.125 14.775 4.8225L14.8075 5.3075L15.2025 5.3075L15.2025 3.5025Q15.2025 3.2325 15.0913 3.0475Q14.98 2.8625 14.7563 2.7675Q14.5325 2.6725 14.195 2.6725Q13.8825 2.6725 13.6538 2.7625Q13.425 2.8525 13.2975 3.02625Q13.17 3.2 13.155 3.4525L13.5625 3.4525Q13.6125 3.22 13.7813 3.1175Q13.95 3.015 14.1725 3.0125Q14.4725 3.0125 14.615 3.15125Q14.7575 3.29 14.7575 3.5275L14.7575 3.73L14.295 3.7425Q13.6325 3.7575 13.3325 3.9675Q13.0325 4.1775 13.0325 4.6075Q13.0325 4.845 13.1413 5.0125Q13.25 5.18 13.4425 5.26875ZM19.105 2.7225L18.66 2.7225L18.66 5.3075L19.12 5.3075L19.12 3.58Q19.12 3.3975 19.2113 3.28375Q19.3025 3.17 19.4363 3.1175Q19.57 3.065 19.7025 3.065Q19.8225 3.065 19.9438 3.1175Q20.065 3.17 20.1462 3.2725Q20.2275 3.375 20.2275 3.5275L20.2275 5.3075L20.6875 5.3075L20.6875 3.58Q20.6875 3.385 20.7825 3.2725Q20.8775 3.16 21.0125 3.1125Q21.1475 3.065 21.2675 3.065Q21.405 3.065 21.5263 3.1175Q21.6475 3.17 21.7225 3.29875Q21.7975 3.4275 21.7975 3.6625L21.7975 5.3075L22.2625 5.3075L22.2625 3.6175Q22.2625 3.33 22.1825 3.14625Q22.1025 2.9625 21.9762 2.85875Q21.85 2.755 21.7025 2.71375Q21.555 2.6725 21.42 2.6725Q21.1625 2.6725 20.9575 2.78875Q20.7525 2.905 20.6325 3.095Q20.565 2.9575 20.4425 2.8625Q20.32 2.7675 20.1737 2.72Q20.0275 2.6725 19.8875 2.6725Q19.5875 2.6725 19.4 2.8Q19.2125 2.9275 19.105 3.0975L19.105 2.7225ZM23.315 4.1225Q23.315 4.3675 23.3963 4.56625Q23.4775 4.765 23.6438 4.8825Q23.81 5 24.06 5Q24.3075 5 24.4863 4.885Q24.665 4.77 24.715 4.5525L25.1525 4.5525Q25.105 4.815 24.9425 4.995Q24.78 5.175 24.55 5.26625Q24.32 5.3575 24.07 5.3575Q23.7075 5.3575 23.4325 5.2Q23.1575 5.0425 23.0025 4.7475Q22.8475 4.4525 22.8475 4.04Q22.8475 3.6325 22.9875 3.325Q23.1275 3.0175 23.3938 2.845Q23.66 2.6725 24.035 2.6725Q24.4 2.6725 24.6525 2.83Q24.905 2.9875 25.0363 3.27375Q25.1675 3.56 25.1675 3.9525L25.1675 4.1225L23.315 4.1225ZM35.4475 5.3575Q35.1975 5.3575 35.005 5.26875Q34.8125 5.18 34.7038 5.0125Q34.595 4.845 34.595 4.6075Q34.595 4.1775 34.895 3.9675Q35.195 3.7575 35.8575 3.7425L36.32 3.73L36.32 3.5275Q36.32 3.29 36.1775 3.15125Q36.035 3.0125 35.735 3.0125Q35.5125 3.015 35.3438 3.1175Q35.175 3.22 35.125 3.4525L34.7175 3.4525Q34.7325 3.2 34.86 3.02625Q34.9875 2.8525 35.2163 2.7625Q35.445 2.6725 35.7575 2.6725Q36.095 2.6725 36.3188 2.7675Q36.5425 2.8625 36.6538 3.0475Q36.765 3.2325 36.765 3.5025L36.765 5.3075L36.37 5.3075L36.3375 4.8225Q36.1875 5.125 35.9563 5.24125Q35.725 5.3575 35.4475 5.3575ZM37.9713 5.27375Q38.2025 5.3575 38.4725 5.3575Q38.7875 5.3575 39.0088 5.26375Q39.23 5.17 39.3488 4.99875Q39.4675 4.8275 39.4675 4.59Q39.4675 4.495 39.4388 4.39125Q39.41 4.2875 39.3413 4.1925Q39.2725 4.0975 39.1563 4.02Q39.04 3.9425 38.86 3.895L38.3425 3.765Q38.1275 3.7125 38.0175 3.63375Q37.9075 3.555 37.9075 3.4175Q37.9075 3.21 38.0625 3.11125Q38.2175 3.0125 38.465 3.0125Q38.7025 3.0125 38.8438 3.12125Q38.985 3.23 39.01 3.415L39.4175 3.415Q39.4075 3.05 39.1488 2.86125Q38.89 2.6725 38.47 2.6725Q38.1425 2.6725 37.9225 2.7725Q37.7025 2.8725 37.5925 3.045Q37.4825 3.2175 37.485 3.445Q37.485 3.7325 37.6725 3.8925Q37.86 4.0525 38.1725 4.1275L38.7075 4.26Q38.8825 4.3 38.9663 4.38625Q39.05 4.4725 39.05 4.615Q39.05 4.8175 38.89 4.915Q38.73 5.0125 38.47 5.0125Q38.3075 5.0125 38.17 4.96125Q38.0325 4.91 37.9412 4.80875Q37.85 4.7075 37.815 4.555L37.395 4.555Q37.435 4.8325 37.5875 5.01125Q37.74 5.19 37.9713 5.27375ZM44.6512 4.56625Q44.57 4.3675 44.57 4.1225L46.4225 4.1225L46.4225 3.9525Q46.4225 3.56 46.2912 3.27375Q46.16 2.9875 45.9075 2.83Q45.655 2.6725 45.29 2.6725Q44.915 2.6725 44.6487 2.845Q44.3825 3.0175 44.2425 3.325Q44.1025 3.6325 44.1025 4.04Q44.1025 4.4525 44.2575 4.7475Q44.4125 5.0425 44.6875 5.2Q44.9625 5.3575 45.325 5.3575Q45.575 5.3575 45.805 5.26625Q46.035 5.175 46.1975 4.995Q46.36 4.815 46.4075 4.5525L45.97 4.5525Q45.92 4.77 45.7412 4.885Q45.5625 5 45.315 5Q45.065 5 44.8987 4.8825Q44.7325 4.765 44.6512 4.56625ZM47.385 4.1225Q47.385 4.3675 47.4662 4.56625Q47.5475 4.765 47.7137 4.8825Q47.88 5 48.13 5Q48.3775 5 48.5562 4.885Q48.735 4.77 48.785 4.5525L49.2225 4.5525Q49.175 4.815 49.0125 4.995Q48.85 5.175 48.62 5.26625Q48.39 5.3575 48.14 5.3575Q47.7775 5.3575 47.5025 5.2Q47.2275 5.0425 47.0725 4.7475Q46.9175 4.4525 46.9175 4.04Q46.9175 3.6325 47.0575 3.325Q47.1975 3.0175 47.4637 2.845Q47.73 2.6725 48.105 2.6725Q48.47 2.6725 48.7225 2.83Q48.975 2.9875 49.1062 3.27375Q49.2375 3.56 49.2375 3.9525L49.2375 4.1225L47.385 4.1225ZM53.9075 6.1125L53.9075 2.7225L54.3675 2.7225L54.3725 3.1725Q54.4175 3.0925 54.4887 3.005Q54.56 2.9175 54.6637 2.8425Q54.7675 2.7675 54.9062 2.72Q55.045 2.6725 55.2225 2.6725Q55.5325 2.6725 55.7687 2.81375Q56.005 2.955 56.1375 3.245Q56.27 3.535 56.27 3.98Q56.27 4.425 56.1412 4.73125Q56.0125 5.0375 55.77 5.1975Q55.5275 5.3575 55.185 5.3575Q55.0125 5.3575 54.8787 5.30875Q54.745 5.26 54.6462 5.18125Q54.5475 5.1025 54.4812 5.0125Q54.415 4.9225 54.3725 4.84L54.3725 6.1125L53.9075 6.1125ZM57.3175 2.7225L56.8775 2.7225L56.8775 5.3075L57.3375 5.3075L57.3375 3.7Q57.3375 3.5375 57.3962 3.42375Q57.455 3.31 57.5575 3.24Q57.66 3.17 57.795 3.14125Q57.93 3.1125 58.085 3.1225Q58.125 3.1225 58.1837 3.12875Q58.2425 3.135 58.28 3.1525L58.28 2.705Q58.25 2.6875 58.195 2.68Q58.14 2.6725 58.0825 2.6725Q57.92 2.6725 57.7687 2.7325Q57.6175 2.7925 57.5 2.91375Q57.3825 3.035 57.3175 3.22L57.3175 2.7225ZM59.8425 5.3575Q59.485 5.3575 59.2175 5.20375Q58.95 5.05 58.8025 4.7525Q58.655 4.455 58.655 4.025Q58.655 3.62 58.7925 3.315Q58.93 3.01 59.1962 2.84125Q59.4625 2.6725 59.8425 2.6725Q60.2 2.6725 60.4637 2.82875Q60.7275 2.985 60.8725 3.2875Q61.0175 3.59 61.0175 4.025Q61.0175 4.42 60.8837 4.72Q60.75 5.02 60.4887 5.18875Q60.2275 5.3575 59.8425 5.3575ZM63.155 2.77875Q62.9325 2.6725 62.655 2.6725Q62.275 2.6725 62.0087 2.8425Q61.7425 3.0125 61.6037 3.31625Q61.465 3.62 61.465 4.025Q61.465 4.4575 61.6175 4.755Q61.77 5.0525 62.0387 5.205Q62.3075 5.3575 62.655 5.3575Q62.93 5.3575 63.1512 5.25375Q63.3725 5.15 63.515 4.96Q63.6575 4.77 63.69 4.51L63.2875 4.51Q63.265 4.64 63.185 4.75375Q63.105 4.8675 62.9737 4.93625Q62.8425 5.005 62.665 5.005Q62.2925 5.005 62.1012 4.73625Q61.91 4.4675 61.91 4.02Q61.91 3.525 62.1175 3.285Q62.325 3.045 62.6575 3.045Q62.835 3.045 62.9675 3.1125Q63.1 3.18 63.1812 3.2925Q63.2625 3.405 63.285 3.54L63.695 3.54Q63.66 3.275 63.5187 3.08Q63.3775 2.885 63.155 2.77875ZM64.6525 4.1225Q64.6525 4.3675 64.7337 4.56625Q64.815 4.765 64.9812 4.8825Q65.1475 5 65.3975 5Q65.645 5 65.8237 4.885Q66.0025 4.77 66.0525 4.5525L66.49 4.5525Q66.4425 4.815 66.28 4.995Q66.1175 5.175 65.8875 5.26625Q65.6575 5.3575 65.4075 5.3575Q65.045 5.3575 64.77 5.2Q64.495 5.0425 64.34 4.7475Q64.185 4.4525 64.185 4.04Q64.185 3.6325 64.325 3.325Q64.465 3.0175 64.7312 2.845Q64.9975 2.6725 65.3725 2.6725Q65.7375 2.6725 65.99 2.83Q66.2425 2.9875 66.3737 3.27375Q66.505 3.56 66.505 3.9525L66.505 4.1225L64.6525 4.1225ZM67.5537 5.27375Q67.785 5.3575 68.055 5.3575Q68.37 5.3575 68.5912 5.26375Q68.8125 5.17 68.9312 4.99875Q69.05 4.8275 69.05 4.59Q69.05 4.495 69.0212 4.39125Q68.9925 4.2875 68.9237 4.1925Q68.855 4.0975 68.7387 4.02Q68.6225 3.9425 68.4425 3.895L67.925 3.765Q67.71 3.7125 67.6 3.63375Q67.49 3.555 67.49 3.4175Q67.49 3.21 67.645 3.11125Q67.8 3.0125 68.0475 3.0125Q68.285 3.0125 68.4262 3.12125Q68.5675 3.23 68.5925 3.415L69 3.415Q68.99 3.05 68.7312 2.86125Q68.4725 2.6725 68.0525 2.6725Q67.725 2.6725 67.505 2.7725Q67.285 2.8725 67.175 3.045Q67.065 3.2175 67.0675 3.445Q67.0675 3.7325 67.255 3.8925Q67.4425 4.0525 67.755 4.1275L68.29 4.26Q68.465 4.3 68.5487 4.38625Q68.6325 4.4725 68.6325 4.615Q68.6325 4.8175 68.4725 4.915Q68.3125 5.0125 68.0525 5.0125Q67.89 5.0125 67.7525 4.96125Q67.615 4.91 67.5238 4.80875Q67.4325 4.7075 67.3975 4.555L66.9775 4.555Q67.0175 4.8325 67.17 5.01125Q67.3225 5.19 67.5537 5.27375ZM70.6125 5.3575Q70.3425 5.3575 70.1113 5.27375Q69.88 5.19 69.7275 5.01125Q69.575 4.8325 69.535 4.555L69.955 4.555Q69.99 4.7075 70.0813 4.80875Q70.1725 4.91 70.31 4.96125Q70.4475 5.0125 70.61 5.0125Q70.87 5.0125 71.03 4.915Q71.19 4.8175 71.19 4.615Q71.19 4.4725 71.1062 4.38625Q71.0225 4.3 70.8475 4.26L70.3125 4.1275Q70 4.0525 69.8125 3.8925Q69.625 3.7325 69.625 3.445Q69.6225 3.2175 69.7325 3.045Q69.8425 2.8725 70.0625 2.7725Q70.2825 2.6725 70.61 2.6725Q71.03 2.6725 71.2887 2.86125Q71.5475 3.05 71.5575 3.415L71.15 3.415Q71.125 3.23 70.9837 3.12125Q70.8425 3.0125 70.605 3.0125Q70.3575 3.0125 70.2025 3.11125Q70.0475 3.21 70.0475 3.4175Q70.0475 3.555 70.1575 3.63375Q70.2675 3.7125 70.4825 3.765L71 3.895Q71.18 3.9425 71.2962 4.02Q71.4125 4.0975 71.4812 4.1925Q71.55 4.2875 71.5788 4.39125Q71.6075 4.495 71.6075 4.59Q71.6075 4.8275 71.4887 4.99875Q71.37 5.17 71.1488 5.26375Q70.9275 5.3575 70.6125 5.3575ZM72.6637 4.56625Q72.5825 4.3675 72.5825 4.1225L74.435 4.1225L74.435 3.9525Q74.435 3.56 74.3038 3.27375Q74.1725 2.9875 73.92 2.83Q73.6675 2.6725 73.3025 2.6725Q72.9275 2.6725 72.6613 2.845Q72.395 3.0175 72.255 3.325Q72.115 3.6325 72.115 4.04Q72.115 4.4525 72.27 4.7475Q72.425 5.0425 72.7 5.2Q72.975 5.3575 73.3375 5.3575Q73.5875 5.3575 73.8175 5.26625Q74.0475 5.175 74.21 4.995Q74.3725 4.815 74.42 4.5525L73.9825 4.5525Q73.9325 4.77 73.7538 4.885Q73.575 5 73.3275 5Q73.0775 5 72.9113 4.8825Q72.745 4.765 72.6637 4.56625ZM26.2475 2.7225L25.8 2.7225L25.8 5.3075L26.26 5.3075L26.26 3.58Q26.26 3.4075 26.355 3.29375Q26.45 3.18 26.6025 3.12375Q26.755 3.0675 26.93 3.0675Q27.1825 3.0675 27.3413 3.21375Q27.5 3.36 27.5 3.6625L27.5 5.3075L27.9625 5.3075L27.9625 3.6175Q27.9625 3.2925 27.8388 3.08625Q27.715 2.88 27.5088 2.7825Q27.3025 2.685 27.0575 2.685Q26.85 2.685 26.6913 2.7425Q26.5325 2.8 26.4213 2.895Q26.31 2.99 26.2475 3.0975L26.2475 2.7225ZM50.3175 2.7225L49.87 2.7225L49.87 5.3075L50.33 5.3075L50.33 3.58Q50.33 3.4075 50.425 3.29375Q50.52 3.18 50.6725 3.12375Q50.825 3.0675 51 3.0675Q51.2525 3.0675 51.4112 3.21375Q51.57 3.36 51.57 3.6625L51.57 5.3075L52.0325 5.3075L52.0325 3.6175Q52.0325 3.2925 51.9087 3.08625Q51.785 2.88 51.5787 2.7825Q51.3725 2.685 51.1275 2.685Q50.92 2.685 50.7612 2.7425Q50.6025 2.8 50.4912 2.895Q50.38 2.99 50.3175 3.0975L50.3175 2.7225ZM16.2475 6.1325Q16.02 6.1325 15.935 6.1L15.85 6.0675L15.85 5.7675L16.1125 5.7725Q16.2575 5.7775 16.3525 5.7525Q16.4475 5.7275 16.505 5.685Q16.5625 5.6425 16.5938 5.59Q16.625 5.5375 16.645 5.49L16.735 5.245L15.725 2.7225L16.1925 2.7225L16.955 4.7175L17.7125 2.7225L18.165 2.7225L17.075 5.5025Q16.975 5.7475 16.8512 5.885Q16.7275 6.0225 16.5763 6.0775Q16.425 6.1325 16.2475 6.1325ZM7.97 3.81L6.565 3.81Q6.5625 3.6175 6.64125 3.43625Q6.72 3.255 6.87875 3.13875Q7.0375 3.0225 7.28 3.0225Q7.5125 3.0225 7.66625 3.12625Q7.82 3.23 7.895 3.40875Q7.97 3.5875 7.97 3.81ZM23.3175 3.81L24.7225 3.81Q24.7225 3.5875 24.6475 3.40875Q24.5725 3.23 24.4188 3.12625Q24.265 3.0225 24.0325 3.0225Q23.79 3.0225 23.6313 3.13875Q23.4725 3.255 23.3938 3.43625Q23.315 3.6175 23.3175 3.81ZM45.9775 3.81L44.5725 3.81Q44.57 3.6175 44.6487 3.43625Q44.7275 3.255 44.8862 3.13875Q45.045 3.0225 45.2875 3.0225Q45.52 3.0225 45.6737 3.12625Q45.8275 3.23 45.9025 3.40875Q45.9775 3.5875 45.9775 3.81ZM47.3875 3.81L48.7925 3.81Q48.7925 3.5875 48.7175 3.40875Q48.6425 3.23 48.4887 3.12625Q48.335 3.0225 48.1025 3.0225Q47.86 3.0225 47.7012 3.13875Q47.5425 3.255 47.4637 3.43625Q47.385 3.6175 47.3875 3.81ZM64.655 3.81L66.06 3.81Q66.06 3.5875 65.985 3.40875Q65.91 3.23 65.7562 3.12625Q65.6025 3.0225 65.37 3.0225Q65.1275 3.0225 64.9687 3.13875Q64.81 3.255 64.7312 3.43625Q64.6525 3.6175 64.655 3.81ZM73.99 3.81L72.585 3.81Q72.5825 3.6175 72.6613 3.43625Q72.74 3.255 72.8988 3.13875Q73.0575 3.0225 73.3 3.0225Q73.5325 3.0225 73.6863 3.12625Q73.84 3.23 73.915 3.40875Q73.99 3.5875 73.99 3.81ZM11.39 4.9975Q11.71 4.9975 11.9125 4.75375Q12.115 4.51 12.115 3.995Q12.115 3.5525 11.93 3.2925Q11.745 3.0325 11.39 3.0325Q11.03 3.0325 10.845 3.29875Q10.66 3.565 10.66 3.995Q10.66 4.2725 10.7425 4.5Q10.825 4.7275 10.9875 4.8625Q11.15 4.9975 11.39 4.9975ZM42.46 5.0025Q42.775 5.0025 42.9725 4.75875Q43.17 4.515 43.17 3.9825Q43.17 3.53 42.9863 3.28125Q42.8025 3.0325 42.45 3.0325Q42.1925 3.0325 42.0363 3.14375Q41.88 3.255 41.8063 3.4675Q41.7325 3.68 41.73 3.9825Q41.73 4.525 41.8988 4.76375Q42.0675 5.0025 42.46 5.0025ZM55.0975 4.9975Q55.4175 4.9975 55.62 4.75375Q55.8225 4.51 55.8225 3.995Q55.8225 3.5525 55.6375 3.2925Q55.4525 3.0325 55.0975 3.0325Q54.7375 3.0325 54.5525 3.29875Q54.3675 3.565 54.3675 3.995Q54.3675 4.2725 54.45 4.5Q54.5325 4.7275 54.695 4.8625Q54.8575 4.9975 55.0975 4.9975ZM76.0825 5.0025Q76.475 5.0025 76.6438 4.76375Q76.8125 4.525 76.8125 3.9825Q76.81 3.68 76.7363 3.4675Q76.6625 3.255 76.5063 3.14375Q76.35 3.0325 76.0925 3.0325Q75.7725 3.0325 75.5725 3.26Q75.3725 3.4875 75.3725 3.9825Q75.3725 4.4675 75.5538 4.735Q75.735 5.0025 76.0825 5.0025ZM59.8425 4.9925Q60.075 4.9925 60.235 4.875Q60.395 4.7575 60.4775 4.5375Q60.56 4.3175 60.56 4.015Q60.56 3.7375 60.4875 3.51625Q60.415 3.295 60.2562 3.165Q60.0975 3.035 59.8425 3.035Q59.6075 3.035 59.445 3.15125Q59.2825 3.2675 59.1987 3.4875Q59.115 3.7075 59.115 4.015Q59.115 4.2875 59.19 4.51Q59.265 4.7325 59.425 4.8625Q59.585 4.9925 59.8425 4.9925ZM14.2838 4.9775Q14.155 5.025 14.025 5.025Q13.785 5.025 13.6338 4.9025Q13.4825 4.78 13.4825 4.5625Q13.4825 4.3725 13.5813 4.255Q13.68 4.1375 13.8788 4.0825Q14.0775 4.0275 14.3725 4.0225L14.7575 4.015L14.7575 4.4575Q14.755 4.565 14.6913 4.66625Q14.6275 4.7675 14.52 4.84875Q14.4125 4.93 14.2838 4.9775ZM35.5875 5.025Q35.7175 5.025 35.8463 4.9775Q35.975 4.93 36.0825 4.84875Q36.19 4.7675 36.2538 4.66625Q36.3175 4.565 36.32 4.4575L36.32 4.015L35.935 4.0225Q35.64 4.0275 35.4413 4.0825Q35.2425 4.1375 35.1438 4.255Q35.045 4.3725 35.045 4.5625Q35.045 4.78 35.1963 4.9025Q35.3475 5.025 35.5875 5.025ZM78.485 4.7175L77.935 4.7175L77.935 5.3075L78.485 5.3075L78.485 4.7175Z" />
        </g>
        <g id="The-total-amount-deducted-from-your-" fill="#36536B">
          <path d="M3.35 8.5925L3.35 12.3075L3.81 12.3075L3.81 10.5825Q3.81 10.4075 3.90375 10.2937Q3.9975 10.18 4.15 10.1237Q4.3025 10.0675 4.475 10.0675Q4.73 10.0675 4.88875 10.1937Q5.0475 10.32 5.0475 10.5525L5.0475 12.3075L5.51 12.3075L5.51 10.46Q5.51 10.2225 5.39 10.05Q5.27 9.8775 5.065 9.78375Q4.86 9.69 4.6075 9.69Q4.4 9.69 4.2425 9.74875Q4.085 9.8075 3.975 9.90125Q3.865 9.995 3.8 10.1025L3.8 8.5925L3.35 8.5925ZM20.1713 12.2825Q20.3 12.34 20.51 12.34Q20.56 12.34 20.6225 12.3287Q20.685 12.3175 20.7425 12.3L20.7425 12L20.6025 11.9975Q20.465 11.9875 20.3888 11.89Q20.3125 11.7925 20.3125 11.5975L20.3125 8.5925L19.8575 8.5925L19.8575 11.6425Q19.8575 11.7775 19.8813 11.9037Q19.905 12.03 19.9738 12.1275Q20.0425 12.225 20.1713 12.2825ZM42.3 12.3575Q41.7975 12.3575 41.5025 12.0125Q41.2075 11.6675 41.2075 11.005Q41.2075 10.6025 41.3263 10.3025Q41.445 10.0025 41.68 9.8375Q41.915 9.6725 42.265 9.6725Q42.45 9.6725 42.5938 9.72Q42.7375 9.7675 42.8425 9.84Q42.9475 9.9125 43.0138 9.99Q43.08 10.0675 43.1125 10.1325L43.1125 8.5925L43.5775 8.5925L43.5775 12.3075L43.225 12.3075L43.175 11.7775Q43.15 11.8525 43.095 11.9513Q43.04 12.05 42.94 12.1438Q42.84 12.2375 42.6838 12.2975Q42.5275 12.3575 42.3 12.3575ZM48.09 12.3575Q47.5875 12.3575 47.2925 12.0125Q46.9975 11.6675 46.9975 11.005Q46.9975 10.6025 47.1162 10.3025Q47.235 10.0025 47.47 9.8375Q47.705 9.6725 48.055 9.6725Q48.24 9.6725 48.3837 9.72Q48.5275 9.7675 48.6325 9.84Q48.7375 9.9125 48.8037 9.99Q48.87 10.0675 48.9025 10.1325L48.9025 8.5925L49.3675 8.5925L49.3675 12.3075L49.015 12.3075L48.965 11.7775Q48.94 11.8525 48.885 11.9513Q48.83 12.05 48.73 12.1438Q48.63 12.2375 48.4737 12.2975Q48.3175 12.3575 48.09 12.3575ZM60.655 12.0125Q60.95 12.3575 61.4525 12.3575Q61.68 12.3575 61.8362 12.2975Q61.9925 12.2375 62.0925 12.1438Q62.1925 12.05 62.2475 11.9513Q62.3025 11.8525 62.3275 11.7775L62.3775 12.3075L62.73 12.3075L62.73 8.5925L62.265 8.5925L62.265 10.1325Q62.2325 10.0675 62.1662 9.99Q62.1 9.9125 61.995 9.84Q61.89 9.7675 61.7462 9.72Q61.6025 9.6725 61.4175 9.6725Q61.0675 9.6725 60.8325 9.8375Q60.5975 10.0025 60.4787 10.3025Q60.36 10.6025 60.36 11.005Q60.36 11.6675 60.655 12.0125ZM0.115 8.6925L0.115 9.1175L1.2825 9.1175L1.2825 12.3075L1.7475 12.3075L1.7475 9.1175L2.85 9.1175L2.85 8.6925L0.115 8.6925ZM66.1075 9.7225L66.1075 10.06L65.48 10.06L65.48 12.3075L65.015 12.3075L65.015 10.06L64.47 10.06L64.47 9.7225L65.015 9.7225L65.015 9.3225Q65.015 9.015 65.1725 8.85375Q65.33 8.6925 65.6425 8.6925L66.13 8.6925L66.1325 9.02L65.745 9.02Q65.5875 9.02 65.53 9.105Q65.4725 9.19 65.4725 9.3625L65.4725 9.7225L66.1075 9.7225ZM10.965 10.06L11.5475 10.06L11.5475 9.72L10.965 9.72L10.965 8.97L10.625 8.97L10.5125 9.7225L10.08 9.7225L10.08 10.06L10.5 10.06L10.5 11.6825Q10.5 11.89 10.5588 12.0325Q10.6175 12.175 10.765 12.2475Q10.9125 12.32 11.18 12.32Q11.3225 12.32 11.4187 12.3075Q11.515 12.295 11.5625 12.2775L11.5625 11.9675L11.28 11.9675Q11.16 11.9675 11.0913 11.95Q11.0225 11.9325 10.9938 11.8687Q10.965 11.805 10.965 11.6675L10.965 10.06ZM15.7875 10.06L16.37 10.06L16.37 9.72L15.7875 9.72L15.7875 8.97L15.4475 8.97L15.335 9.7225L14.9025 9.7225L14.9025 10.06L15.3225 10.06L15.3225 11.6825Q15.3225 11.89 15.3812 12.0325Q15.44 12.175 15.5875 12.2475Q15.735 12.32 16.0025 12.32Q16.145 12.32 16.2412 12.3075Q16.3375 12.295 16.385 12.2775L16.385 11.9675L16.1025 11.9675Q15.9825 11.9675 15.9137 11.95Q15.845 11.9325 15.8162 11.8687Q15.7875 11.805 15.7875 11.6675L15.7875 10.06ZM38.9675 10.06L39.55 10.06L39.55 9.72L38.9675 9.72L38.9675 8.97L38.6275 8.97L38.515 9.7225L38.0825 9.7225L38.0825 10.06L38.5025 10.06L38.5025 11.6825Q38.5025 11.89 38.5612 12.0325Q38.62 12.175 38.7675 12.2475Q38.915 12.32 39.1825 12.32Q39.325 12.32 39.4212 12.3075Q39.5175 12.295 39.565 12.2775L39.565 11.9675L39.2825 11.9675Q39.1625 11.9675 39.0938 11.95Q39.025 11.9325 38.9963 11.8687Q38.9675 11.805 38.9675 11.6675L38.9675 10.06ZM56.4575 10.06L57.04 10.06L57.04 9.72L56.4575 9.72L56.4575 8.97L56.1175 8.97L56.005 9.7225L55.5725 9.7225L55.5725 10.06L55.9925 10.06L55.9925 11.6825Q55.9925 11.89 56.0512 12.0325Q56.11 12.175 56.2575 12.2475Q56.405 12.32 56.6725 12.32Q56.815 12.32 56.9112 12.3075Q57.0075 12.295 57.055 12.2775L57.055 11.9675L56.7725 11.9675Q56.6525 11.9675 56.5837 11.95Q56.515 11.9325 56.4862 11.8687Q56.4575 11.805 56.4575 11.6675L56.4575 10.06ZM6.5625 11.1225Q6.5625 11.3675 6.64375 11.5662Q6.725 11.765 6.89125 11.8825Q7.0575 12 7.3075 12Q7.555 12 7.73375 11.885Q7.9125 11.77 7.9625 11.5525L8.4 11.5525Q8.3525 11.815 8.19 11.995Q8.0275 12.175 7.7975 12.2662Q7.5675 12.3575 7.3175 12.3575Q6.955 12.3575 6.68 12.2Q6.405 12.0425 6.25 11.7475Q6.095 11.4525 6.095 11.04Q6.095 10.6325 6.235 10.325Q6.375 10.0175 6.64125 9.845Q6.9075 9.6725 7.2825 9.6725Q7.6475 9.6725 7.9 9.83Q8.1525 9.9875 8.28375 10.2738Q8.415 10.56 8.415 10.9525L8.415 11.1225L6.5625 11.1225ZM13.24 12.3575Q12.8825 12.3575 12.615 12.2037Q12.3475 12.05 12.2 11.7525Q12.0525 11.455 12.0525 11.025Q12.0525 10.62 12.19 10.315Q12.3275 10.01 12.5938 9.84125Q12.86 9.6725 13.24 9.6725Q13.5975 9.6725 13.8612 9.82875Q14.125 9.985 14.27 10.2875Q14.415 10.59 14.415 11.025Q14.415 11.42 14.2813 11.72Q14.1475 12.02 13.8862 12.1888Q13.625 12.3575 13.24 12.3575ZM17.75 12.3575Q17.5 12.3575 17.3075 12.2688Q17.115 12.18 17.0063 12.0125Q16.8975 11.845 16.8975 11.6075Q16.8975 11.1775 17.1975 10.9675Q17.4975 10.7575 18.16 10.7425L18.6225 10.73L18.6225 10.5275Q18.6225 10.29 18.48 10.1512Q18.3375 10.0125 18.0375 10.0125Q17.815 10.015 17.6462 10.1175Q17.4775 10.22 17.4275 10.4525L17.02 10.4525Q17.035 10.2 17.1625 10.0262Q17.29 9.8525 17.5187 9.7625Q17.7475 9.6725 18.06 9.6725Q18.3975 9.6725 18.6213 9.7675Q18.845 9.8625 18.9562 10.0475Q19.0675 10.2325 19.0675 10.5025L19.0675 12.3075L18.6725 12.3075L18.64 11.8225Q18.49 12.125 18.2588 12.2413Q18.0275 12.3575 17.75 12.3575ZM23.2125 12.3575Q22.9625 12.3575 22.77 12.2688Q22.5775 12.18 22.4688 12.0125Q22.36 11.845 22.36 11.6075Q22.36 11.1775 22.66 10.9675Q22.96 10.7575 23.6225 10.7425L24.085 10.73L24.085 10.5275Q24.085 10.29 23.9425 10.1512Q23.8 10.0125 23.5 10.0125Q23.2775 10.015 23.1087 10.1175Q22.94 10.22 22.89 10.4525L22.4825 10.4525Q22.4975 10.2 22.625 10.0262Q22.7525 9.8525 22.9813 9.7625Q23.21 9.6725 23.5225 9.6725Q23.86 9.6725 24.0837 9.7675Q24.3075 9.8625 24.4188 10.0475Q24.53 10.2325 24.53 10.5025L24.53 12.3075L24.135 12.3075L24.1025 11.8225Q23.9525 12.125 23.7213 12.2413Q23.49 12.3575 23.2125 12.3575ZM25.765 9.7225L25.32 9.7225L25.32 12.3075L25.78 12.3075L25.78 10.58Q25.78 10.3975 25.8713 10.2837Q25.9625 10.17 26.0963 10.1175Q26.23 10.065 26.3625 10.065Q26.4825 10.065 26.6038 10.1175Q26.725 10.17 26.8062 10.2725Q26.8875 10.375 26.8875 10.5275L26.8875 12.3075L27.3475 12.3075L27.3475 10.58Q27.3475 10.385 27.4425 10.2725Q27.5375 10.16 27.6725 10.1125Q27.8075 10.065 27.9275 10.065Q28.065 10.065 28.1863 10.1175Q28.3075 10.17 28.3825 10.2987Q28.4575 10.4275 28.4575 10.6625L28.4575 12.3075L28.9225 12.3075L28.9225 10.6175Q28.9225 10.33 28.8425 10.1462Q28.7625 9.9625 28.6362 9.85875Q28.51 9.755 28.3625 9.71375Q28.215 9.6725 28.08 9.6725Q27.8225 9.6725 27.6175 9.78875Q27.4125 9.905 27.2925 10.095Q27.225 9.9575 27.1025 9.8625Q26.98 9.7675 26.8337 9.72Q26.6875 9.6725 26.5475 9.6725Q26.2475 9.6725 26.06 9.8Q25.8725 9.9275 25.765 10.0975L25.765 9.7225ZM30.6725 12.3575Q30.315 12.3575 30.0475 12.2037Q29.78 12.05 29.6325 11.7525Q29.485 11.455 29.485 11.025Q29.485 10.62 29.6225 10.315Q29.76 10.01 30.0263 9.84125Q30.2925 9.6725 30.6725 9.6725Q31.03 9.6725 31.2938 9.82875Q31.5575 9.985 31.7025 10.2875Q31.8475 10.59 31.8475 11.025Q31.8475 11.42 31.7138 11.72Q31.58 12.02 31.3188 12.1888Q31.0575 12.3575 30.6725 12.3575ZM44.7537 11.5662Q44.6725 11.3675 44.6725 11.1225L46.525 11.1225L46.525 10.9525Q46.525 10.56 46.3937 10.2738Q46.2625 9.9875 46.01 9.83Q45.7575 9.6725 45.3925 9.6725Q45.0175 9.6725 44.7512 9.845Q44.485 10.0175 44.345 10.325Q44.205 10.6325 44.205 11.04Q44.205 11.4525 44.36 11.7475Q44.515 12.0425 44.79 12.2Q45.065 12.3575 45.4275 12.3575Q45.6775 12.3575 45.9075 12.2662Q46.1375 12.175 46.3 11.995Q46.4625 11.815 46.51 11.5525L46.0725 11.5525Q46.0225 11.77 45.8438 11.885Q45.665 12 45.4175 12Q45.1675 12 45.0012 11.8825Q44.835 11.765 44.7537 11.5662ZM54.025 9.6725Q54.3025 9.6725 54.525 9.77875Q54.7475 9.885 54.8887 10.08Q55.03 10.275 55.065 10.54L54.655 10.54Q54.6325 10.405 54.5512 10.2925Q54.47 10.18 54.3375 10.1125Q54.205 10.045 54.0275 10.045Q53.695 10.045 53.4875 10.285Q53.28 10.525 53.28 11.02Q53.28 11.4675 53.4712 11.7362Q53.6625 12.005 54.035 12.005Q54.2125 12.005 54.3437 11.9362Q54.475 11.8675 54.555 11.7537Q54.635 11.64 54.6575 11.51L55.06 11.51Q55.0275 11.77 54.885 11.96Q54.7425 12.15 54.5212 12.2537Q54.3 12.3575 54.025 12.3575Q53.6775 12.3575 53.4087 12.205Q53.14 12.0525 52.9875 11.755Q52.835 11.4575 52.835 11.025Q52.835 10.62 52.9737 10.3162Q53.1125 10.0125 53.3787 9.8425Q53.645 9.6725 54.025 9.6725ZM58.035 11.1225Q58.035 11.3675 58.1162 11.5662Q58.1975 11.765 58.3637 11.8825Q58.53 12 58.78 12Q59.0275 12 59.2062 11.885Q59.385 11.77 59.435 11.5525L59.8725 11.5525Q59.825 11.815 59.6625 11.995Q59.5 12.175 59.27 12.2662Q59.04 12.3575 58.79 12.3575Q58.4275 12.3575 58.1525 12.2Q57.8775 12.0425 57.7225 11.7475Q57.5675 11.4525 57.5675 11.04Q57.5675 10.6325 57.7075 10.325Q57.8475 10.0175 58.1137 9.845Q58.38 9.6725 58.755 9.6725Q59.12 9.6725 59.3725 9.83Q59.625 9.9875 59.7562 10.2738Q59.8875 10.56 59.8875 10.9525L59.8875 11.1225L58.035 11.1225ZM67.1175 9.7225L66.6775 9.7225L66.6775 12.3075L67.1375 12.3075L67.1375 10.7Q67.1375 10.5375 67.1962 10.4237Q67.255 10.31 67.3575 10.24Q67.46 10.17 67.595 10.1412Q67.73 10.1125 67.885 10.1225Q67.925 10.1225 67.9837 10.1287Q68.0425 10.135 68.08 10.1525L68.08 9.705Q68.05 9.6875 67.995 9.68Q67.94 9.6725 67.8825 9.6725Q67.72 9.6725 67.5687 9.7325Q67.4175 9.7925 67.3 9.91375Q67.1825 10.035 67.1175 10.22L67.1175 9.7225ZM69.6425 12.3575Q69.285 12.3575 69.0175 12.2037Q68.75 12.05 68.6025 11.7525Q68.455 11.455 68.455 11.025Q68.455 10.62 68.5925 10.315Q68.73 10.01 68.9962 9.84125Q69.2625 9.6725 69.6425 9.6725Q70 9.6725 70.2637 9.82875Q70.5275 9.985 70.6725 10.2875Q70.8175 10.59 70.8175 11.025Q70.8175 11.42 70.6837 11.72Q70.55 12.02 70.2887 12.1888Q70.0275 12.3575 69.6425 12.3575ZM71.87 9.7225L71.425 9.7225L71.425 12.3075L71.885 12.3075L71.885 10.58Q71.885 10.3975 71.9762 10.2837Q72.0675 10.17 72.2012 10.1175Q72.335 10.065 72.4675 10.065Q72.5875 10.065 72.7087 10.1175Q72.83 10.17 72.9112 10.2725Q72.9925 10.375 72.9925 10.5275L72.9925 12.3075L73.4525 12.3075L73.4525 10.58Q73.4525 10.385 73.5475 10.2725Q73.6425 10.16 73.7775 10.1125Q73.9125 10.065 74.0325 10.065Q74.17 10.065 74.2912 10.1175Q74.4125 10.17 74.4875 10.2987Q74.5625 10.4275 74.5625 10.6625L74.5625 12.3075L75.0275 12.3075L75.0275 10.6175Q75.0275 10.33 74.9475 10.1462Q74.8675 9.9625 74.7412 9.85875Q74.615 9.755 74.4675 9.71375Q74.32 9.6725 74.185 9.6725Q73.9275 9.6725 73.7225 9.78875Q73.5175 9.905 73.3975 10.095Q73.33 9.9575 73.2075 9.8625Q73.085 9.7675 72.9387 9.72Q72.7925 9.6725 72.6525 9.6725Q72.3525 9.6725 72.165 9.8Q71.9775 9.9275 71.87 10.0975L71.87 9.7225ZM79.9725 12.2037Q80.24 12.3575 80.5975 12.3575Q80.9825 12.3575 81.2437 12.1888Q81.505 12.02 81.6387 11.72Q81.7725 11.42 81.7725 11.025Q81.7725 10.59 81.6275 10.2875Q81.4825 9.985 81.2187 9.82875Q80.955 9.6725 80.5975 9.6725Q80.2175 9.6725 79.9512 9.84125Q79.685 10.01 79.5475 10.315Q79.41 10.62 79.41 11.025Q79.41 11.455 79.5575 11.7525Q79.705 12.05 79.9725 12.2037ZM85.6825 9.7225L85.2425 9.7225L85.2425 12.3075L85.7025 12.3075L85.7025 10.7Q85.7025 10.5375 85.7612 10.4237Q85.82 10.31 85.9225 10.24Q86.025 10.17 86.16 10.1412Q86.295 10.1125 86.45 10.1225Q86.49 10.1225 86.5487 10.1287Q86.6075 10.135 86.645 10.1525L86.645 9.705Q86.615 9.6875 86.56 9.68Q86.505 9.6725 86.4475 9.6725Q86.285 9.6725 86.1337 9.7325Q85.9825 9.7925 85.865 9.91375Q85.7475 10.035 85.6825 10.22L85.6825 9.7225ZM35.3175 9.7225L35.765 9.7225L35.765 10.0975Q35.8275 9.99 35.9388 9.895Q36.05 9.8 36.2088 9.7425Q36.3675 9.685 36.575 9.685Q36.82 9.685 37.0263 9.7825Q37.2325 9.88 37.3563 10.0863Q37.48 10.2925 37.48 10.6175L37.48 12.3075L37.0175 12.3075L37.0175 10.6625Q37.0175 10.36 36.8588 10.2137Q36.7 10.0675 36.4475 10.0675Q36.2725 10.0675 36.12 10.1237Q35.9675 10.18 35.8725 10.2937Q35.7775 10.4075 35.7775 10.58L35.7775 12.3075L35.3175 12.3075L35.3175 9.7225ZM33.0238 12.2987Q33.2025 12.355 33.405 12.3575Q33.5875 12.36 33.7463 12.3038Q33.905 12.2475 34.0188 12.1275Q34.1325 12.0075 34.18 11.8125L34.2275 12.3075L34.595 12.3075L34.595 9.7225L34.135 9.7225L34.135 11.405Q34.135 11.7 33.9613 11.8488Q33.7875 11.9975 33.5025 11.9975Q33.1875 11.9975 33.0313 11.84Q32.875 11.6825 32.875 11.43L32.875 9.7225L32.4125 9.7225L32.4125 11.4775Q32.4125 11.695 32.4913 11.8587Q32.57 12.0225 32.7075 12.1325Q32.845 12.2425 33.0238 12.2987ZM50.7012 12.2987Q50.88 12.355 51.0825 12.3575Q51.265 12.36 51.4237 12.3038Q51.5825 12.2475 51.6962 12.1275Q51.81 12.0075 51.8575 11.8125L51.905 12.3075L52.2725 12.3075L52.2725 9.7225L51.8125 9.7225L51.8125 11.405Q51.8125 11.7 51.6387 11.8488Q51.465 11.9975 51.18 11.9975Q50.865 11.9975 50.7087 11.84Q50.5525 11.6825 50.5525 11.43L50.5525 9.7225L50.09 9.7225L50.09 11.4775Q50.09 11.695 50.1687 11.8587Q50.2475 12.0225 50.385 12.1325Q50.5225 12.2425 50.7012 12.2987ZM77.1575 13.1325Q76.93 13.1325 76.845 13.1L76.76 13.0675L76.76 12.7675L77.0225 12.7725Q77.1675 12.7775 77.2625 12.7525Q77.3575 12.7275 77.415 12.685Q77.4725 12.6425 77.5037 12.59Q77.535 12.5375 77.555 12.49L77.645 12.245L76.635 9.7225L77.1025 9.7225L77.865 11.7175L78.6225 9.7225L79.075 9.7225L77.985 12.5025Q77.885 12.7475 77.7612 12.885Q77.6375 13.0225 77.4862 13.0775Q77.335 13.1325 77.1575 13.1325ZM83.33 12.3575Q83.1275 12.355 82.9487 12.2987Q82.77 12.2425 82.6325 12.1325Q82.495 12.0225 82.4162 11.8587Q82.3375 11.695 82.3375 11.4775L82.3375 9.7225L82.8 9.7225L82.8 11.43Q82.8 11.6825 82.9562 11.84Q83.1125 11.9975 83.4275 11.9975Q83.7125 11.9975 83.8862 11.8488Q84.06 11.7 84.06 11.405L84.06 9.7225L84.52 9.7225L84.52 12.3075L84.1525 12.3075L84.105 11.8125Q84.0575 12.0075 83.9437 12.1275Q83.83 12.2475 83.6712 12.3038Q83.5125 12.36 83.33 12.3575ZM6.565 10.81L7.97 10.81Q7.97 10.5875 7.895 10.4087Q7.82 10.23 7.66625 10.1262Q7.5125 10.0225 7.28 10.0225Q7.0375 10.0225 6.87875 10.1388Q6.72 10.255 6.64125 10.4362Q6.5625 10.6175 6.565 10.81ZM46.08 10.81L44.675 10.81Q44.6725 10.6175 44.7512 10.4362Q44.83 10.255 44.9888 10.1388Q45.1475 10.0225 45.39 10.0225Q45.6225 10.0225 45.7762 10.1262Q45.93 10.23 46.005 10.4087Q46.08 10.5875 46.08 10.81ZM58.0375 10.81L59.4425 10.81Q59.4425 10.5875 59.3675 10.4087Q59.2925 10.23 59.1387 10.1262Q58.985 10.0225 58.7525 10.0225Q58.51 10.0225 58.3512 10.1388Q58.1925 10.255 58.1137 10.4362Q58.035 10.6175 58.0375 10.81ZM42.3825 12.0025Q42.775 12.0025 42.9438 11.7638Q43.1125 11.525 43.1125 10.9825Q43.11 10.68 43.0363 10.4675Q42.9625 10.255 42.8063 10.1437Q42.65 10.0325 42.3925 10.0325Q42.0725 10.0325 41.8725 10.26Q41.6725 10.4875 41.6725 10.9825Q41.6725 11.4675 41.8538 11.735Q42.035 12.0025 42.3825 12.0025ZM48.1725 12.0025Q48.565 12.0025 48.7337 11.7638Q48.9025 11.525 48.9025 10.9825Q48.9 10.68 48.8262 10.4675Q48.7525 10.255 48.5962 10.1437Q48.44 10.0325 48.1825 10.0325Q47.8625 10.0325 47.6625 10.26Q47.4625 10.4875 47.4625 10.9825Q47.4625 11.4675 47.6437 11.735Q47.825 12.0025 48.1725 12.0025ZM62.0962 11.7638Q61.9275 12.0025 61.535 12.0025Q61.1875 12.0025 61.0062 11.735Q60.825 11.4675 60.825 10.9825Q60.825 10.4875 61.025 10.26Q61.225 10.0325 61.545 10.0325Q61.8025 10.0325 61.9587 10.1437Q62.115 10.255 62.1887 10.4675Q62.2625 10.68 62.265 10.9825Q62.265 11.525 62.0962 11.7638ZM13.24 11.9925Q13.4725 11.9925 13.6325 11.875Q13.7925 11.7575 13.875 11.5375Q13.9575 11.3175 13.9575 11.015Q13.9575 10.7375 13.885 10.5162Q13.8125 10.295 13.6538 10.165Q13.495 10.035 13.24 10.035Q13.005 10.035 12.8425 10.1512Q12.68 10.2675 12.5962 10.4875Q12.5125 10.7075 12.5125 11.015Q12.5125 11.2875 12.5875 11.51Q12.6625 11.7325 12.8225 11.8625Q12.9825 11.9925 13.24 11.9925ZM30.6725 11.9925Q30.905 11.9925 31.065 11.875Q31.225 11.7575 31.3075 11.5375Q31.39 11.3175 31.39 11.015Q31.39 10.7375 31.3175 10.5162Q31.245 10.295 31.0863 10.165Q30.9275 10.035 30.6725 10.035Q30.4375 10.035 30.275 10.1512Q30.1125 10.2675 30.0288 10.4875Q29.945 10.7075 29.945 11.015Q29.945 11.2875 30.02 11.51Q30.095 11.7325 30.255 11.8625Q30.415 11.9925 30.6725 11.9925ZM69.6425 11.9925Q69.875 11.9925 70.035 11.875Q70.195 11.7575 70.2775 11.5375Q70.36 11.3175 70.36 11.015Q70.36 10.7375 70.2875 10.5162Q70.215 10.295 70.0562 10.165Q69.8975 10.035 69.6425 10.035Q69.4075 10.035 69.245 10.1512Q69.0825 10.2675 68.9987 10.4875Q68.915 10.7075 68.915 11.015Q68.915 11.2875 68.99 11.51Q69.065 11.7325 69.225 11.8625Q69.385 11.9925 69.6425 11.9925ZM80.99 11.875Q80.83 11.9925 80.5975 11.9925Q80.34 11.9925 80.18 11.8625Q80.02 11.7325 79.945 11.51Q79.87 11.2875 79.87 11.015Q79.87 10.7075 79.9537 10.4875Q80.0375 10.2675 80.2 10.1512Q80.3625 10.035 80.5975 10.035Q80.8525 10.035 81.0112 10.165Q81.17 10.295 81.2425 10.5162Q81.315 10.7375 81.315 11.015Q81.315 11.3175 81.2325 11.5375Q81.15 11.7575 80.99 11.875ZM17.89 12.025Q18.02 12.025 18.1488 11.9775Q18.2775 11.93 18.385 11.8488Q18.4925 11.7675 18.5562 11.6663Q18.62 11.565 18.6225 11.4575L18.6225 11.015L18.2375 11.0225Q17.9425 11.0275 17.7437 11.0825Q17.545 11.1375 17.4463 11.255Q17.3475 11.3725 17.3475 11.5625Q17.3475 11.78 17.4988 11.9025Q17.65 12.025 17.89 12.025ZM23.3525 12.025Q23.4825 12.025 23.6112 11.9775Q23.74 11.93 23.8475 11.8488Q23.955 11.7675 24.0187 11.6663Q24.0825 11.565 24.085 11.4575L24.085 11.015L23.7 11.0225Q23.405 11.0275 23.2062 11.0825Q23.0075 11.1375 22.9088 11.255Q22.81 11.3725 22.81 11.5625Q22.81 11.78 22.9613 11.9025Q23.1125 12.025 23.3525 12.025Z" />
        </g>
        <g id="account-is" fill="#36536B">
          <path d="M20.8325 15.695L20.8325 16.175L20.36 16.175L20.36 15.695L20.8325 15.695ZM17.9225 17.06L18.505 17.06L18.505 16.72L17.9225 16.72L17.9225 15.97L17.5825 15.97L17.47 16.7225L17.0375 16.7225L17.0375 17.06L17.4575 17.06L17.4575 18.6825Q17.4575 18.89 17.5163 19.0325Q17.575 19.175 17.7225 19.2475Q17.87 19.32 18.1375 19.32Q18.28 19.32 18.3762 19.3075Q18.4725 19.295 18.52 19.2775L18.52 18.9675L18.2375 18.9675Q18.1175 18.9675 18.0487 18.95Q17.98 18.9325 17.9513 18.8687Q17.9225 18.805 17.9225 18.6675L17.9225 17.06ZM1.0975 19.3575Q0.8475 19.3575 0.655 19.2687Q0.4625 19.18 0.35375 19.0125Q0.245 18.845 0.245 18.6075Q0.245 18.1775 0.545 17.9675Q0.845 17.7575 1.5075 17.7425L1.97 17.73L1.97 17.5275Q1.97 17.29 1.8275 17.1512Q1.685 17.0125 1.385 17.0125Q1.1625 17.015 0.99375 17.1175Q0.825 17.22 0.775 17.4525L0.3675 17.4525Q0.3825 17.2 0.51 17.0262Q0.6375 16.8525 0.86625 16.7625Q1.095 16.6725 1.4075 16.6725Q1.745 16.6725 1.96875 16.7675Q2.1925 16.8625 2.30375 17.0475Q2.415 17.2325 2.415 17.5025L2.415 19.3075L2.02 19.3075L1.9875 18.8225Q1.8375 19.125 1.60625 19.2412Q1.375 19.3575 1.0975 19.3575ZM4.235 16.6725Q4.5125 16.6725 4.735 16.7787Q4.9575 16.885 5.09875 17.08Q5.24 17.275 5.275 17.54L4.865 17.54Q4.8425 17.405 4.76125 17.2925Q4.68 17.18 4.5475 17.1125Q4.415 17.045 4.2375 17.045Q3.905 17.045 3.6975 17.285Q3.49 17.525 3.49 18.02Q3.49 18.4675 3.68125 18.7362Q3.8725 19.005 4.245 19.005Q4.4225 19.005 4.55375 18.9362Q4.685 18.8675 4.765 18.7537Q4.845 18.64 4.8675 18.51L5.27 18.51Q5.2375 18.77 5.095 18.96Q4.9525 19.15 4.73125 19.2537Q4.51 19.3575 4.235 19.3575Q3.8875 19.3575 3.61875 19.205Q3.35 19.0525 3.1975 18.755Q3.045 18.4575 3.045 18.025Q3.045 17.62 3.18375 17.3162Q3.3225 17.0125 3.58875 16.8425Q3.855 16.6725 4.235 16.6725ZM7.4325 16.7787Q7.21 16.6725 6.9325 16.6725Q6.5525 16.6725 6.28625 16.8425Q6.02 17.0125 5.88125 17.3162Q5.7425 17.62 5.7425 18.025Q5.7425 18.4575 5.895 18.755Q6.0475 19.0525 6.31625 19.205Q6.585 19.3575 6.9325 19.3575Q7.2075 19.3575 7.42875 19.2537Q7.65 19.15 7.7925 18.96Q7.935 18.77 7.9675 18.51L7.565 18.51Q7.5425 18.64 7.4625 18.7537Q7.3825 18.8675 7.25125 18.9362Q7.12 19.005 6.9425 19.005Q6.57 19.005 6.37875 18.7362Q6.1875 18.4675 6.1875 18.02Q6.1875 17.525 6.395 17.285Q6.6025 17.045 6.935 17.045Q7.1125 17.045 7.245 17.1125Q7.3775 17.18 7.45875 17.2925Q7.54 17.405 7.5625 17.54L7.9725 17.54Q7.9375 17.275 7.79625 17.08Q7.655 16.885 7.4325 16.7787ZM9.6275 19.3575Q9.27 19.3575 9.0025 19.2037Q8.735 19.05 8.5875 18.7525Q8.44 18.455 8.44 18.025Q8.44 17.62 8.5775 17.315Q8.715 17.01 8.98125 16.8412Q9.2475 16.6725 9.6275 16.6725Q9.985 16.6725 10.2487 16.8287Q10.5125 16.985 10.6575 17.2875Q10.8025 17.59 10.8025 18.025Q10.8025 18.42 10.6687 18.72Q10.535 19.02 10.2738 19.1887Q10.0125 19.3575 9.6275 19.3575ZM22.0513 19.2737Q22.2825 19.3575 22.5525 19.3575Q22.8675 19.3575 23.0888 19.2637Q23.31 19.17 23.4288 18.9987Q23.5475 18.8275 23.5475 18.59Q23.5475 18.495 23.5188 18.3912Q23.49 18.2875 23.4213 18.1925Q23.3525 18.0975 23.2362 18.02Q23.12 17.9425 22.94 17.895L22.4225 17.765Q22.2075 17.7125 22.0975 17.6337Q21.9875 17.555 21.9875 17.4175Q21.9875 17.21 22.1425 17.1112Q22.2975 17.0125 22.545 17.0125Q22.7825 17.0125 22.9237 17.1212Q23.065 17.23 23.09 17.415L23.4975 17.415Q23.4875 17.05 23.2288 16.8612Q22.97 16.6725 22.55 16.6725Q22.2225 16.6725 22.0025 16.7725Q21.7825 16.8725 21.6725 17.045Q21.5625 17.2175 21.565 17.445Q21.565 17.7325 21.7525 17.8925Q21.94 18.0525 22.2525 18.1275L22.7875 18.26Q22.9625 18.3 23.0463 18.3862Q23.13 18.4725 23.13 18.615Q23.13 18.8175 22.97 18.915Q22.81 19.0125 22.55 19.0125Q22.3875 19.0125 22.25 18.9612Q22.1125 18.91 22.0212 18.8087Q21.93 18.7075 21.895 18.555L21.475 18.555Q21.515 18.8325 21.6675 19.0112Q21.82 19.19 22.0513 19.2737ZM14.2725 16.7225L14.72 16.7225L14.72 17.0975Q14.7825 16.99 14.8938 16.895Q15.005 16.8 15.1638 16.7425Q15.3225 16.685 15.53 16.685Q15.775 16.685 15.9813 16.7825Q16.1875 16.88 16.3113 17.0862Q16.435 17.2925 16.435 17.6175L16.435 19.3075L15.9725 19.3075L15.9725 17.6625Q15.9725 17.36 15.8138 17.2137Q15.655 17.0675 15.4025 17.0675Q15.2275 17.0675 15.075 17.1237Q14.9225 17.18 14.8275 17.2937Q14.7325 17.4075 14.7325 17.58L14.7325 19.3075L14.2725 19.3075L14.2725 16.7225ZM11.9788 19.2987Q12.1575 19.355 12.36 19.3575Q12.5425 19.36 12.7013 19.3037Q12.86 19.2475 12.9738 19.1275Q13.0875 19.0075 13.135 18.8125L13.1825 19.3075L13.55 19.3075L13.55 16.7225L13.09 16.7225L13.09 18.405Q13.09 18.7 12.9163 18.8487Q12.7425 18.9975 12.4575 18.9975Q12.1425 18.9975 11.9862 18.84Q11.83 18.6825 11.83 18.43L11.83 16.7225L11.3675 16.7225L11.3675 18.4775Q11.3675 18.695 11.4462 18.8587Q11.525 19.0225 11.6625 19.1325Q11.8 19.2425 11.9788 19.2987ZM20.8225 19.3075L20.375 19.3075L20.375 16.7225L20.8225 16.7225L20.8225 19.3075ZM9.6275 18.9925Q9.86 18.9925 10.02 18.875Q10.18 18.7575 10.2625 18.5375Q10.345 18.3175 10.345 18.015Q10.345 17.7375 10.2725 17.5162Q10.2 17.295 10.0413 17.165Q9.8825 17.035 9.6275 17.035Q9.3925 17.035 9.23 17.1512Q9.0675 17.2675 8.98375 17.4875Q8.9 17.7075 8.9 18.015Q8.9 18.2875 8.975 18.51Q9.05 18.7325 9.21 18.8625Q9.37 18.9925 9.6275 18.9925ZM1.2375 19.025Q1.3675 19.025 1.49625 18.9775Q1.625 18.93 1.7325 18.8487Q1.84 18.7675 1.90375 18.6662Q1.9675 18.565 1.97 18.4575L1.97 18.015L1.585 18.0225Q1.29 18.0275 1.09125 18.0825Q0.8925 18.1375 0.79375 18.255Q0.695 18.3725 0.695 18.5625Q0.695 18.78 0.84625 18.9025Q0.9975 19.025 1.2375 19.025Z" />
        </g>
        <g id="-US-$104.90" fill="#36536B">
          <path d="M35.105 15.175L34.4725 15.175L34.4725 15.6699Q34.2543 15.7024 34.0638 15.7825Q33.7425 15.9175 33.5563 16.1662Q33.37 16.415 33.3725 16.755Q33.3775 17.17 33.6263 17.4162Q33.875 17.6625 34.2875 17.745L34.88 17.8725Q35.145 17.9325 35.2725 18.0312Q35.4 18.13 35.4 18.33Q35.4 18.46 35.32 18.5612Q35.24 18.6625 35.1013 18.7212Q34.9625 18.78 34.7825 18.78Q34.4825 18.78 34.2838 18.6512Q34.085 18.5225 34.025 18.275L33.265 18.29Q33.325 18.835 33.73 19.0962Q34.0285 19.2888 34.46 19.3394L34.46 19.785L35.09 19.785L35.09 19.3391Q35.3262 19.3091 35.52 19.23Q35.8325 19.1025 36.0038 18.87Q36.175 18.6375 36.175 18.325Q36.175 17.9175 35.9563 17.6325Q35.7375 17.3475 35.245 17.23L34.6625 17.0875Q34.3675 17.01 34.2613 16.9187Q34.155 16.8275 34.155 16.67Q34.155 16.57 34.1988 16.49Q34.2425 16.41 34.3275 16.3512Q34.4125 16.2925 34.53 16.26Q34.6475 16.2275 34.7975 16.2275Q35.0875 16.2275 35.2125 16.365Q35.3375 16.5025 35.3725 16.7425L36.11 16.73Q36.115 16.4325 35.9538 16.1862Q35.7925 15.94 35.4938 15.7937Q35.3185 15.708 35.105 15.6725L35.105 15.175ZM41.1925 16.1237Q40.82 15.6425 40.175 15.6425Q39.745 15.6425 39.4325 15.8587Q39.12 16.075 38.95 16.4925Q38.78 16.91 38.78 17.51Q38.78 18.4075 39.1488 18.885Q39.5175 19.3625 40.175 19.3625Q40.83 19.3625 41.1975 18.8837Q41.565 18.405 41.565 17.5075Q41.565 16.605 41.1925 16.1237ZM47.9575 19.3625Q47.62 19.3625 47.3275 19.2325Q47.035 19.1025 46.85 18.8662Q46.665 18.63 46.6425 18.3125L47.3375 18.3125Q47.3825 18.5225 47.5375 18.6537Q47.6925 18.785 47.9275 18.785Q48.1875 18.785 48.3838 18.6625Q48.58 18.54 48.6787 18.2725Q48.7775 18.005 48.7475 17.5725Q48.6775 17.705 48.5537 17.8037Q48.43 17.9025 48.265 17.9562Q48.1 18.01 47.8975 18.01Q47.53 18.01 47.2463 17.8712Q46.9625 17.7325 46.8013 17.4762Q46.64 17.22 46.64 16.8675Q46.64 16.5125 46.81 16.235Q46.98 15.9575 47.285 15.8Q47.59 15.6425 48 15.6425Q48.46 15.6425 48.7938 15.8612Q49.1275 16.08 49.3063 16.4812Q49.485 16.8825 49.485 17.425Q49.485 18.0725 49.3013 18.5037Q49.1175 18.935 48.775 19.1487Q48.4325 19.3625 47.9575 19.3625ZM52.3375 16.1237Q51.965 15.6425 51.32 15.6425Q50.89 15.6425 50.5775 15.8587Q50.265 16.075 50.095 16.4925Q49.925 16.91 49.925 17.51Q49.925 18.4075 50.2938 18.885Q50.6625 19.3625 51.32 19.3625Q51.975 19.3625 52.3425 18.8837Q52.71 18.405 52.71 17.5075Q52.71 16.605 52.3375 16.1237ZM30.2525 19.3575Q29.985 19.3575 29.7275 19.29Q29.47 19.2225 29.2575 19.0875Q29.045 18.9525 28.9063 18.75Q28.7675 18.5475 28.74 18.275L29.4875 18.275Q29.525 18.44 29.63 18.5525Q29.735 18.665 29.895 18.725Q30.055 18.785 30.25 18.785Q30.45 18.785 30.615 18.735Q30.78 18.685 30.88 18.5837Q30.98 18.4825 30.98 18.33Q30.98 18.1925 30.8988 18.105Q30.8175 18.0175 30.68 17.9625Q30.5425 17.9075 30.3675 17.8725L29.7425 17.745Q29.3325 17.6675 29.0925 17.4187Q28.8525 17.17 28.845 16.755Q28.8425 16.415 29.0263 16.1662Q29.21 15.9175 29.5263 15.7825Q29.8425 15.6475 30.235 15.6475Q30.7025 15.6475 31.0213 15.7937Q31.34 15.94 31.5063 16.1887Q31.6725 16.4375 31.6775 16.7425L30.945 16.7425Q30.925 16.5525 30.83 16.44Q30.735 16.3275 30.5863 16.2775Q30.4375 16.2275 30.2475 16.2275Q30.1025 16.2275 29.9838 16.26Q29.865 16.2925 29.7825 16.3512Q29.7 16.41 29.655 16.49Q29.61 16.57 29.61 16.67Q29.61 16.8275 29.715 16.925Q29.82 17.0225 30.1075 17.085L30.7275 17.2125Q31.06 17.2775 31.2563 17.405Q31.4525 17.5325 31.5513 17.6925Q31.65 17.8525 31.6813 18.0187Q31.7125 18.185 31.7125 18.325Q31.7125 18.6175 31.5288 18.8512Q31.345 19.085 31.0175 19.2212Q30.69 19.3575 30.2525 19.3575ZM28.1675 17.93Q28.1675 18.3675 28.025 18.6887Q27.8825 19.01 27.5638 19.1837Q27.245 19.3575 26.72 19.3575Q26.1925 19.3575 25.875 19.1812Q25.5575 19.005 25.4163 18.68Q25.275 18.355 25.275 17.905L25.275 15.6925L26.0175 15.6925L26.0175 17.96Q26.0175 18.365 26.2125 18.5512Q26.4075 18.7375 26.72 18.7375Q26.9275 18.7375 27.0875 18.6562Q27.2475 18.575 27.3388 18.4037Q27.43 18.2325 27.43 17.96L27.43 15.6925L28.1675 15.6925L28.1675 17.93ZM37.28 19.3075L37.28 16.6L36.635 16.6L36.635 16.1875Q36.945 16.1875 37.1363 16.1287Q37.3275 16.07 37.4225 15.9587Q37.5175 15.8475 37.535 15.6925L38.02 15.6925L38.02 19.3075L37.28 19.3075ZM43.645 15.6925L44.3625 15.6925L44.3625 17.895L44.92 17.895L44.92 18.5075L44.3625 18.5075L44.3625 19.3075L43.66 19.3075L43.6625 18.5075L41.9975 18.5075L41.9975 17.9075L43.645 15.6925ZM48.0225 17.43Q48.175 17.43 48.3187 17.3612Q48.4625 17.2925 48.555 17.1875Q48.6475 17.0825 48.6475 16.97Q48.65 16.7275 48.5713 16.5537Q48.4925 16.38 48.3512 16.2875Q48.21 16.195 48.0225 16.195Q47.85 16.195 47.715 16.275Q47.58 16.355 47.5025 16.5Q47.425 16.645 47.425 16.835Q47.425 17.1175 47.59 17.2737Q47.755 17.43 48.0225 17.43ZM40.6475 18.4762Q40.4975 18.765 40.175 18.765Q39.85 18.765 39.695 18.475Q39.54 18.185 39.54 17.51Q39.54 16.8225 39.6963 16.52Q39.8525 16.2175 40.1725 16.2175Q40.4925 16.2175 40.645 16.5175Q40.7975 16.8175 40.7975 17.51Q40.7975 18.1875 40.6475 18.4762ZM51.7925 18.4762Q51.6425 18.765 51.32 18.765Q50.995 18.765 50.84 18.475Q50.685 18.185 50.685 17.51Q50.685 16.8225 50.8413 16.52Q50.9975 16.2175 51.3175 16.2175Q51.6375 16.2175 51.79 16.5175Q51.9425 16.8175 51.9425 17.51Q51.9425 18.1875 51.7925 18.4762ZM42.6725 17.895L43.6625 17.895L43.6625 16.57L42.6725 17.895ZM45.31 18.5125L45.31 19.3075L46.11 19.3075L46.11 18.5125L45.31 18.5125Z" />
        </g>
        <g id="." fill="#36536B">
          <path d="M53.2025 19.3075L53.2025 18.7175L53.7525 18.7175L53.7525 19.3075L53.2025 19.3075Z" />
        </g>
      </g>
      <g id="Group-28" transform="translate(7.7067175 8.676938)">
        <path d="M1.91223 3.53632L1.91223 2.0494L3.12363 0L2.35537 0L1.56302 1.43311L0.761038 0L0 0L1.20899 2.04696L1.20899 3.53632L1.91223 3.53632ZM4.53974 3.58523C4.79342 3.58523 5.00977 3.5298 5.18879 3.41893C5.36781 3.30806 5.50508 3.15521 5.60062 2.96038C5.69615 2.76555 5.74391 2.54096 5.74391 2.28662C5.74391 2.01598 5.69494 1.7812 5.597 1.58229C5.49906 1.38339 5.36018 1.22972 5.18036 1.1213C5.00054 1.01288 4.7878 0.95867 4.54215 0.95867C4.29649 0.95867 4.08336 1.0141 3.90273 1.12497C3.7221 1.23584 3.58242 1.39072 3.48368 1.58963C3.38493 1.78854 3.33556 2.02087 3.33556 2.28662C3.33556 2.55238 3.38493 2.78226 3.48368 2.97628C3.58242 3.17029 3.7221 3.32029 3.90273 3.42627C4.08336 3.53224 4.29569 3.58523 4.53974 3.58523ZM4.54215 3.05454C4.41049 3.05454 4.30693 3.01622 4.23147 2.93959C4.15601 2.86297 4.10222 2.76392 4.07011 2.64246C4.038 2.52099 4.02194 2.39423 4.02194 2.26217C4.02194 2.11869 4.0396 1.98785 4.07493 1.86965C4.11025 1.75145 4.16604 1.6577 4.24231 1.58841C4.31857 1.51912 4.41852 1.48447 4.54215 1.48447C4.6722 1.48447 4.77495 1.52115 4.85042 1.59452C4.92588 1.66789 4.97926 1.76408 5.01057 1.8831C5.04188 2.00212 5.05753 2.12847 5.05753 2.26217C5.05753 2.40401 5.04027 2.53485 5.00575 2.65468C4.97123 2.77452 4.91624 2.87112 4.84078 2.94449C4.76532 3.01785 4.66578 3.05454 4.54215 3.05454ZM7.12871 3.58523C7.22665 3.58523 7.3266 3.57015 7.42855 3.53999C7.53051 3.50982 7.62122 3.4552 7.7007 3.37613C7.78017 3.29706 7.83436 3.18334 7.86326 3.03497L7.86326 3.03497L7.94514 3.53632L8.47498 3.53632L8.47498 1.00758L7.77897 1.00758L7.77897 2.65346C7.77897 2.78389 7.73843 2.88538 7.65735 2.95794C7.57627 3.03049 7.46669 3.06676 7.32861 3.06676C7.1825 3.06676 7.07172 3.02927 6.99625 2.95427C6.92079 2.87927 6.88306 2.78308 6.88306 2.66569L6.88306 2.66569L6.88306 1.00758L6.17982 1.00758L6.17982 2.75618C6.17982 2.8915 6.20752 3.01052 6.26291 3.11323C6.3183 3.21595 6.39176 3.30236 6.48328 3.37246C6.57479 3.44257 6.67635 3.49556 6.78793 3.53143C6.89952 3.56729 7.01311 3.58523 7.12871 3.58523ZM9.749 3.53632L9.749 2.15212C9.749 2.06734 9.76265 1.99071 9.78994 1.92223C9.81723 1.85375 9.86139 1.79588 9.9224 1.74859C9.98341 1.70131 10.0629 1.66789 10.1608 1.64832C10.2588 1.62876 10.3768 1.62468 10.5149 1.6361C10.5309 1.63773 10.549 1.63936 10.569 1.64099C10.5891 1.64262 10.6064 1.64669 10.6208 1.65322L10.6208 1.65322L10.6208 0.973343C10.6112 0.968452 10.5963 0.964784 10.5763 0.962338C10.5562 0.959892 10.5349 0.95867 10.5124 0.95867C10.3808 0.95867 10.2628 0.985979 10.1584 1.0406C10.0541 1.09521 9.96535 1.17103 9.89229 1.26804C9.81924 1.36504 9.76265 1.47795 9.72251 1.60675L9.72251 1.60675L9.72251 1.00758L9.04576 1.00758L9.04576 3.53632L9.749 3.53632ZM12.5619 3.53632L12.8534 2.71705L14.1057 2.71705L14.3899 3.53632L15.0907 3.53632L13.8456 0L13.1038 0L11.8563 3.53632L12.5619 3.53632ZM13.9371 2.09342L13.0099 2.09342L13.4771 0.689655L13.9371 2.09342ZM16.2275 4.3238L16.2275 3.15725C16.2628 3.21758 16.3041 3.27342 16.3515 3.32477C16.3989 3.37613 16.4526 3.42137 16.5128 3.4605C16.5731 3.49963 16.6385 3.5302 16.7091 3.55221C16.7798 3.57422 16.8552 3.58523 16.9355 3.58523C17.1314 3.58523 17.3072 3.53795 17.4629 3.44338C17.6187 3.34882 17.7411 3.20331 17.8302 3.00685C17.9193 2.81039 17.9639 2.5589 17.9639 2.25238C17.9639 1.95728 17.9225 1.71395 17.8398 1.52238C17.7572 1.33081 17.6436 1.18896 17.4991 1.09685C17.3546 1.00473 17.19 0.95867 17.0054 0.95867C16.9203 0.95867 16.8392 0.96886 16.7621 0.989239C16.685 1.00962 16.6136 1.03856 16.5478 1.07606C16.4819 1.11356 16.4221 1.15717 16.3683 1.2069C16.3146 1.25662 16.2692 1.31165 16.2323 1.37197L16.2323 1.37197L16.2299 1.00758L15.5242 1.00758L15.5242 4.3238L16.2275 4.3238ZM16.7669 3.06187C16.6449 3.06187 16.5442 3.02437 16.4647 2.94938C16.3852 2.87438 16.3258 2.77574 16.2865 2.65346C16.2471 2.53118 16.2275 2.39912 16.2275 2.25728C16.2275 2.03554 16.272 1.85009 16.3611 1.7009C16.4502 1.55172 16.5855 1.47713 16.7669 1.47713C16.9291 1.47713 17.0595 1.54602 17.1583 1.68379C17.257 1.82155 17.3064 2.01272 17.3064 2.25728C17.3064 2.53607 17.2546 2.73987 17.1511 2.86867C17.0475 2.99747 16.9195 3.06187 16.7669 3.06187ZM19.1343 4.3238L19.1343 3.15725C19.1697 3.21758 19.211 3.27342 19.2584 3.32477C19.3057 3.37613 19.3595 3.42137 19.4197 3.4605C19.4799 3.49963 19.5454 3.5302 19.616 3.55221C19.6866 3.57422 19.7621 3.58523 19.8424 3.58523C20.0383 3.58523 20.2141 3.53795 20.3698 3.44338C20.5256 3.34882 20.648 3.20331 20.7371 3.00685C20.8262 2.81039 20.8708 2.5589 20.8708 2.25238C20.8708 1.95728 20.8294 1.71395 20.7467 1.52238C20.664 1.33081 20.5504 1.18896 20.4059 1.09685C20.2614 1.00473 20.0969 0.95867 19.9122 0.95867C19.8271 0.95867 19.7461 0.96886 19.669 0.989239C19.5919 1.00962 19.5205 1.03856 19.4546 1.07606C19.3888 1.11356 19.329 1.15717 19.2752 1.2069C19.2214 1.25662 19.1761 1.31165 19.1392 1.37197L19.1392 1.37197L19.1367 1.00758L18.4311 1.00758L18.4311 4.3238L19.1343 4.3238ZM19.6738 3.06187C19.5518 3.06187 19.451 3.02437 19.3716 2.94938C19.2921 2.87438 19.2327 2.77574 19.1933 2.65346C19.154 2.53118 19.1343 2.39912 19.1343 2.25728C19.1343 2.03554 19.1789 1.85009 19.268 1.7009C19.3571 1.55172 19.4924 1.47713 19.6738 1.47713C19.836 1.47713 19.9664 1.54602 20.0652 1.68379C20.1639 1.82155 20.2133 2.01272 20.2133 2.25728C20.2133 2.53607 20.1615 2.73987 20.0579 2.86867C19.9544 2.99747 19.8263 3.06187 19.6738 3.06187Z" transform="translate(0.045758635 0.014673514)" id="YourApp" fill="#BA4270" stroke="none" />
        <path d="M0.563554 3.58523C0.759433 3.58523 0.910757 3.55099 1.01753 3.48251C1.1243 3.41404 1.19856 3.31377 1.2403 3.18171C1.28204 3.04965 1.30292 2.88987 1.30292 2.70237L1.30292 2.70237L1.30292 0L0.857372 0L0.857372 2.57276C0.857372 2.78145 0.828071 2.92981 0.769468 3.01785C0.710864 3.10589 0.60289 3.14991 0.445545 3.14991C0.349211 3.14991 0.268531 3.13646 0.203506 3.10956C0.13848 3.08266 0.0810811 3.06024 0.0313085 3.04231L0.0313085 3.04231L0 3.47518C0.0353225 3.48985 0.107172 3.51186 0.215547 3.54121C0.323923 3.57056 0.439925 3.58523 0.563554 3.58523ZM2.95504 3.58523C3.07225 3.58686 3.18183 3.56933 3.28378 3.53265C3.38574 3.49596 3.47324 3.43849 3.54629 3.36023C3.61935 3.28198 3.67113 3.17926 3.70163 3.05209L3.70163 3.05209L3.74739 3.53632L4.10142 3.53632L4.10142 1.00758L3.65828 1.00758L3.65828 2.65346C3.65828 2.84585 3.60249 2.99054 3.4909 3.08755C3.37932 3.18456 3.232 3.23306 3.04897 3.23306C2.84667 3.23306 2.69534 3.18171 2.595 3.07899C2.49465 2.97628 2.44447 2.84259 2.44447 2.67792L2.44447 2.67792L2.44447 1.00758L1.99893 1.00758L1.99893 2.72438C1.99893 2.86623 2.02422 2.99054 2.07479 3.09733C2.12537 3.20412 2.19481 3.29339 2.28312 3.36513C2.37142 3.43686 2.47297 3.49107 2.58777 3.52776C2.70257 3.56444 2.82499 3.5836 2.95504 3.58523ZM5.6813 3.58523C5.8836 3.58523 6.05579 3.55466 6.19789 3.49352C6.33998 3.43238 6.44916 3.34597 6.52542 3.23429C6.60169 3.12261 6.63982 2.98932 6.63982 2.83443C6.63982 2.77248 6.63059 2.70767 6.61212 2.64001C6.59366 2.57235 6.56235 2.50754 6.5182 2.44559C6.47404 2.38363 6.41464 2.32738 6.33998 2.27684C6.26532 2.2263 6.17019 2.18554 6.05459 2.15456L6.05459 2.15456L5.55606 2.02739C5.41798 1.99315 5.31362 1.95035 5.24298 1.899C5.17233 1.84764 5.13701 1.77713 5.13701 1.68745C5.13701 1.55213 5.18678 1.45227 5.28633 1.38787C5.38587 1.32347 5.51512 1.29127 5.67407 1.29127C5.8266 1.29127 5.94822 1.32673 6.03894 1.39765C6.12965 1.46857 6.18303 1.56436 6.19909 1.68501L6.19909 1.68501L6.59165 1.68501C6.58523 1.44697 6.49893 1.26641 6.33275 1.14331C6.16658 1.02022 5.94862 0.95867 5.67889 0.95867C5.46856 0.95867 5.29275 0.991277 5.15146 1.05649C5.01017 1.12171 4.9042 1.21056 4.83356 1.32306C4.76291 1.43556 4.72839 1.56599 4.73 1.71436C4.73 1.90185 4.79021 2.04777 4.91062 2.15212C5.03104 2.25646 5.1916 2.33309 5.39229 2.382L5.39229 2.382L5.90768 2.51162C6.02007 2.5377 6.10316 2.57887 6.15694 2.63512C6.21073 2.69137 6.23762 2.76596 6.23762 2.85889C6.23762 2.99095 6.18625 3.08877 6.08349 3.15236C5.98073 3.21595 5.84587 3.24774 5.67889 3.24774C5.57453 3.24774 5.47819 3.23103 5.38989 3.1976C5.30158 3.16418 5.22812 3.11445 5.16952 3.04842C5.11092 2.98239 5.07038 2.89965 5.0479 2.8002L5.0479 2.8002L4.6433 2.8002C4.66899 2.98117 4.7308 3.12994 4.82874 3.24652C4.92668 3.36309 5.04991 3.44868 5.19842 3.5033C5.34694 3.55792 5.50789 3.58523 5.6813 3.58523ZM8.20525 3.54854C8.29676 3.54854 8.37343 3.54447 8.43524 3.53632C8.49706 3.52817 8.54322 3.51838 8.57372 3.50697L8.57372 3.50697L8.57372 3.20372L8.30158 3.20372C8.22451 3.20372 8.1639 3.19801 8.11975 3.1866C8.0756 3.17519 8.04429 3.14869 8.02582 3.10712C8.00736 3.06554 7.99813 2.99992 7.99813 2.91025L7.99813 2.91025L7.99813 1.33774L8.55927 1.33774L8.55927 1.00514L7.99813 1.00514L7.99813 0.27146L7.67059 0.27146L7.56222 1.00758L7.14557 1.00758L7.14557 1.33774L7.55017 1.33774L7.55017 2.92492C7.55017 3.06024 7.56904 3.17437 7.60677 3.2673C7.6445 3.36023 7.71073 3.43034 7.80546 3.47762C7.90019 3.5249 8.03345 3.54854 8.20525 3.54854ZM10.8472 3.53632L10.8472 0.748349L12.7161 3.53632L13.1135 3.53632L13.1135 0L12.6679 0L12.6679 2.74884L10.8279 0L10.4017 0L10.4017 3.53632L10.8472 3.53632ZM14.9318 3.58523C15.179 3.58523 15.3865 3.5302 15.5543 3.42015C15.7221 3.3101 15.8489 3.15725 15.9348 2.9616C16.0207 2.76596 16.0637 2.53933 16.0637 2.28173C16.0637 1.99804 16.0171 1.75756 15.924 1.56028C15.8309 1.36301 15.6996 1.21342 15.5302 1.11152C15.3609 1.00962 15.1614 0.95867 14.9318 0.95867C14.6877 0.95867 14.4802 1.0137 14.3092 1.12375C14.1382 1.2338 14.0086 1.38828 13.9203 1.58719C13.832 1.78609 13.7878 2.01761 13.7878 2.28173C13.7878 2.56216 13.8352 2.79938 13.9299 2.9934C14.0246 3.18741 14.1579 3.33456 14.3297 3.43483C14.5015 3.53509 14.7022 3.58523 14.9318 3.58523ZM14.9318 3.22817C14.7664 3.22817 14.6323 3.18578 14.5296 3.101C14.4268 3.01622 14.3514 2.90128 14.3032 2.75618C14.255 2.61107 14.2309 2.44966 14.2309 2.27195C14.2309 2.07141 14.2578 1.8994 14.3116 1.75593C14.3654 1.61246 14.4445 1.50281 14.5488 1.427C14.6532 1.35119 14.7808 1.31328 14.9318 1.31328C15.0955 1.31328 15.2284 1.35567 15.3303 1.44045C15.4323 1.52523 15.5066 1.63977 15.5531 1.78405C15.5997 1.92834 15.623 2.09098 15.623 2.27195C15.623 2.46923 15.5965 2.6396 15.5435 2.78308C15.4905 2.92655 15.4126 3.0366 15.3099 3.11323C15.2071 3.18986 15.0811 3.22817 14.9318 3.22817ZM17.6243 3.53632L18.1638 1.67034L18.7321 3.53632L19.1705 3.53632L19.9243 1.00758L19.5076 1.00758L18.9609 2.94693L18.9224 2.94693L18.3396 1.00758L18.0024 1.00758L17.4413 2.95182L17.4027 2.95182L16.832 1.00758L16.4201 1.00758L17.1884 3.53632L17.6243 3.53632Z" transform="translate(69.584335 0.014673514)" id="JustNow" fill="#36536B" fill-opacity="0.5" stroke="none" />
      </g>
    </g>
  </g>
</svg>